<?xml version="1.0" encoding="UTF-8" standalone="no"?>
<!DOCTYPE svg PUBLIC "-//W3C//DTD SVG 1.1//EN"
 "http://www.w3.org/Graphics/SVG/1.1/DTD/svg11.dtd">
<!-- Generated by graphviz version 2.40.1 (20161225.0304)
 -->
<!-- Title: dependencies Pages: 1 -->
<svg width="1323pt" height="211pt"
 viewBox="0.00 0.00 1323.00 211.00" xmlns="http://www.w3.org/2000/svg" xmlns:xlink="http://www.w3.org/1999/xlink">
<g id="graph0" class="graph" transform="scale(1 1) rotate(0) translate(4 207)">
<title>dependencies</title>
<polygon fill="#ffffff" stroke="transparent" points="-4,4 -4,-207 1319,-207 1319,4 -4,4"/>
<text text-anchor="start" x="636.5091" y="-42.4" font-family="sans-serif" font-weight="bold" font-size="14.00" fill="#000000">Legend</text>
<polygon fill="#ffffb3" stroke="transparent" points="423.5,-10 423.5,-30 443.5,-30 443.5,-10 423.5,-10"/>
<text text-anchor="start" x="447.129" y="-15.4" font-family="sans-serif" font-size="14.00" fill="#000000"> &#160;Declarations</text>
<polygon fill="#8dd3c7" stroke="transparent" points="536.5,-10 536.5,-30 556.5,-30 556.5,-10 536.5,-10"/>
<text text-anchor="start" x="560.2251" y="-15.4" font-family="sans-serif" font-size="14.00" fill="#000000"> &#160;Module</text>
<polygon fill="#80b1d3" stroke="transparent" points="622.5,-10 622.5,-30 642.5,-30 642.5,-10 622.5,-10"/>
<text text-anchor="start" x="646.2812" y="-15.4" font-family="sans-serif" font-size="14.00" fill="#000000"> &#160;Bootstrap</text>
<polygon fill="#fdb462" stroke="transparent" points="719.5,-10 719.5,-30 739.5,-30 739.5,-10 719.5,-10"/>
<text text-anchor="start" x="743.1732" y="-15.4" font-family="sans-serif" font-size="14.00" fill="#000000"> &#160;Providers</text>
<polygon fill="#fb8072" stroke="transparent" points="815.5,-10 815.5,-30 835.5,-30 835.5,-10 815.5,-10"/>
<text text-anchor="start" x="839.2258" y="-15.4" font-family="sans-serif" font-size="14.00" fill="#000000"> &#160;Exports</text>
<g id="clust1" class="cluster">
<title>cluster_ToolPageModule</title>
<polygon fill="none" stroke="#000000" stroke-dasharray="1,5" points="8,-70 8,-195 1307,-195 1307,-70 8,-70"/>
</g>
<g id="clust2" class="cluster">
<title>cluster_ToolPageModule_declarations</title>
<polygon fill="none" stroke="#000000" points="16,-78 16,-130 1299,-130 1299,-78 16,-78"/>
</g>
<!-- CodeEditorComponent -->
<g id="node1" class="node">
<title>CodeEditorComponent</title>
<polygon fill="#ffffb3" stroke="#000000" points="1290.8781,-122 1145.1219,-122 1145.1219,-86 1290.8781,-86 1290.8781,-122"/>
<text text-anchor="middle" x="1218" y="-99.8" font-family="Times,serif" font-size="14.00" fill="#000000">CodeEditorComponent</text>
</g>
<!-- ToolPageModule -->
<g id="node9" class="node">
<title>ToolPageModule</title>
<polygon fill="#8dd3c7" stroke="#000000" points="689.705,-187 686.705,-191 665.705,-191 662.705,-187 576.295,-187 576.295,-151 689.705,-151 689.705,-187"/>
<text text-anchor="middle" x="633" y="-164.8" font-family="Times,serif" font-size="14.00" fill="#000000">ToolPageModule</text>
</g>
<!-- CodeEditorComponent&#45;&gt;ToolPageModule -->
<g id="edge1" class="edge">
<title>CodeEditorComponent&#45;&gt;ToolPageModule</title>
<path fill="none" stroke="#000000" d="M1218,-122.2921C1218,-144.2057 1218,-178 1218,-178 1218,-178 699.6238,-178 699.6238,-178"/>
<polygon fill="#000000" stroke="#000000" points="699.6238,-174.5001 689.6238,-178 699.6238,-181.5001 699.6238,-174.5001"/>
</g>
<!-- IssueCardComponent -->
<g id="node2" class="node">
<title>IssueCardComponent</title>
<polygon fill="#ffffb3" stroke="#000000" points="1126.8089,-122 989.1911,-122 989.1911,-86 1126.8089,-86 1126.8089,-122"/>
<text text-anchor="middle" x="1058" y="-99.8" font-family="Times,serif" font-size="14.00" fill="#000000">IssueCardComponent</text>
</g>
<!-- IssueCardComponent&#45;&gt;ToolPageModule -->
<g id="edge2" class="edge">
<title>IssueCardComponent&#45;&gt;ToolPageModule</title>
<path fill="none" stroke="#000000" d="M1058,-122.1061C1058,-141.3391 1058,-169 1058,-169 1058,-169 699.8764,-169 699.8764,-169"/>
<polygon fill="#000000" stroke="#000000" points="699.8764,-165.5001 689.8764,-169 699.8764,-172.5001 699.8764,-165.5001"/>
</g>
<!-- IssueContainerComponent -->
<g id="node3" class="node">
<title>IssueContainerComponent</title>
<polygon fill="#ffffb3" stroke="#000000" points="971.8047,-122 806.1953,-122 806.1953,-86 971.8047,-86 971.8047,-122"/>
<text text-anchor="middle" x="889" y="-99.8" font-family="Times,serif" font-size="14.00" fill="#000000">IssueContainerComponent</text>
</g>
<!-- IssueContainerComponent&#45;&gt;ToolPageModule -->
<g id="edge3" class="edge">
<title>IssueContainerComponent&#45;&gt;ToolPageModule</title>
<path fill="none" stroke="#000000" d="M889,-122.027C889,-138.3976 889,-160 889,-160 889,-160 699.8147,-160 699.8147,-160"/>
<polygon fill="#000000" stroke="#000000" points="699.8147,-156.5001 689.8147,-160 699.8147,-163.5001 699.8147,-156.5001"/>
</g>
<!-- IssueDetailsComponent -->
<g id="node4" class="node">
<title>IssueDetailsComponent</title>
<polygon fill="#ffffb3" stroke="#000000" points="787.7492,-122 638.2508,-122 638.2508,-86 787.7492,-86 787.7492,-122"/>
<text text-anchor="middle" x="713" y="-99.8" font-family="Times,serif" font-size="14.00" fill="#000000">IssueDetailsComponent</text>
</g>
<!-- IssueDetailsComponent&#45;&gt;ToolPageModule -->
<g id="edge4" class="edge">
<title>IssueDetailsComponent&#45;&gt;ToolPageModule</title>
<path fill="none" stroke="#000000" d="M663.8639,-122.1061C663.8639,-122.1061 663.8639,-140.991 663.8639,-140.991"/>
<polygon fill="#000000" stroke="#000000" points="660.364,-140.9909 663.8639,-150.991 667.364,-140.991 660.364,-140.9909"/>
</g>
<!-- IssueListComponent -->
<g id="node5" class="node">
<title>IssueListComponent</title>
<polygon fill="#ffffb3" stroke="#000000" points="619.8753,-122 488.1247,-122 488.1247,-86 619.8753,-86 619.8753,-122"/>
<text text-anchor="middle" x="554" y="-99.8" font-family="Times,serif" font-size="14.00" fill="#000000">IssueListComponent</text>
</g>
<!-- IssueListComponent&#45;&gt;ToolPageModule -->
<g id="edge5" class="edge">
<title>IssueListComponent&#45;&gt;ToolPageModule</title>
<path fill="none" stroke="#000000" d="M598.1676,-122.1061C598.1676,-122.1061 598.1676,-140.991 598.1676,-140.991"/>
<polygon fill="#000000" stroke="#000000" points="594.6677,-140.9909 598.1676,-150.991 601.6677,-140.991 594.6677,-140.9909"/>
</g>
<!-- IssueNavComponent -->
<g id="node6" class="node">
<title>IssueNavComponent</title>
<polygon fill="#ffffb3" stroke="#000000" points="469.9187,-122 336.0813,-122 336.0813,-86 469.9187,-86 469.9187,-122"/>
<text text-anchor="middle" x="403" y="-99.8" font-family="Times,serif" font-size="14.00" fill="#000000">IssueNavComponent</text>
</g>
<!-- IssueNavComponent&#45;&gt;ToolPageModule -->
<g id="edge6" class="edge">
<title>IssueNavComponent&#45;&gt;ToolPageModule</title>
<path fill="none" stroke="#000000" d="M403,-122.027C403,-138.3976 403,-160 403,-160 403,-160 566.1461,-160 566.1461,-160"/>
<polygon fill="#000000" stroke="#000000" points="566.1461,-163.5001 576.1461,-160 566.146,-156.5001 566.1461,-163.5001"/>
</g>
<!-- StatBadgeComponent -->
<g id="node7" class="node">
<title>StatBadgeComponent</title>
<polygon fill="#ffffb3" stroke="#000000" points="318.3767,-122 179.6233,-122 179.6233,-86 318.3767,-86 318.3767,-122"/>
<text text-anchor="middle" x="249" y="-99.8" font-family="Times,serif" font-size="14.00" fill="#000000">StatBadgeComponent</text>
</g>
<!-- StatBadgeComponent&#45;&gt;ToolPageModule -->
<g id="edge7" class="edge">
<title>StatBadgeComponent&#45;&gt;ToolPageModule</title>
<path fill="none" stroke="#000000" d="M249,-122.1061C249,-141.3391 249,-169 249,-169 249,-169 566.3395,-169 566.3395,-169"/>
<polygon fill="#000000" stroke="#000000" points="566.3395,-172.5001 576.3395,-169 566.3394,-165.5001 566.3395,-172.5001"/>
</g>
<!-- ToolViewComponent -->
<g id="node8" class="node">
<title>ToolViewComponent</title>
<polygon fill="#ffffb3" stroke="#000000" points="162.094,-122 23.906,-122 23.906,-86 162.094,-86 162.094,-122"/>
<text text-anchor="middle" x="93" y="-99.8" font-family="Times,serif" font-size="14.00" fill="#000000">ToolViewComponent</text>
</g>
<!-- ToolViewComponent&#45;&gt;ToolPageModule -->
<g id="edge8" class="edge">
<title>ToolViewComponent&#45;&gt;ToolPageModule</title>
<path fill="none" stroke="#000000" d="M93,-122.2921C93,-144.2057 93,-178 93,-178 93,-178 566.2312,-178 566.2312,-178"/>
<polygon fill="#000000" stroke="#000000" points="566.2312,-181.5001 576.2312,-178 566.2311,-174.5001 566.2312,-181.5001"/>
</g>
</g>
</svg>
