<?xml version="1.0" encoding="UTF-8" standalone="no"?>
<!DOCTYPE svg PUBLIC "-//W3C//DTD SVG 1.1//EN"
 "http://www.w3.org/Graphics/SVG/1.1/DTD/svg11.dtd">
<!-- Generated by graphviz version 2.40.1 (20161225.0304)
 -->
<!-- Title: dependencies Pages: 1 -->
<svg width="724pt" height="284pt"
 viewBox="0.00 0.00 724.00 284.00" xmlns="http://www.w3.org/2000/svg" xmlns:xlink="http://www.w3.org/1999/xlink">
<g id="graph0" class="graph" transform="scale(1 1) rotate(0) translate(4 280)">
<title>dependencies</title>
<polygon fill="#ffffff" stroke="transparent" points="-4,4 -4,-280 720,-280 720,4 -4,4"/>
<text text-anchor="start" x="337.0091" y="-42.4" font-family="sans-serif" font-weight="bold" font-size="14.00" fill="#000000">Legend</text>
<polygon fill="#ffffb3" stroke="transparent" points="124,-10 124,-30 144,-30 144,-10 124,-10"/>
<text text-anchor="start" x="147.629" y="-15.4" font-family="sans-serif" font-size="14.00" fill="#000000"> &#160;Declarations</text>
<polygon fill="#8dd3c7" stroke="transparent" points="237,-10 237,-30 257,-30 257,-10 237,-10"/>
<text text-anchor="start" x="260.7251" y="-15.4" font-family="sans-serif" font-size="14.00" fill="#000000"> &#160;Module</text>
<polygon fill="#80b1d3" stroke="transparent" points="323,-10 323,-30 343,-30 343,-10 323,-10"/>
<text text-anchor="start" x="346.7812" y="-15.4" font-family="sans-serif" font-size="14.00" fill="#000000"> &#160;Bootstrap</text>
<polygon fill="#fdb462" stroke="transparent" points="420,-10 420,-30 440,-30 440,-10 420,-10"/>
<text text-anchor="start" x="443.6732" y="-15.4" font-family="sans-serif" font-size="14.00" fill="#000000"> &#160;Providers</text>
<polygon fill="#fb8072" stroke="transparent" points="516,-10 516,-30 536,-30 536,-10 516,-10"/>
<text text-anchor="start" x="539.7258" y="-15.4" font-family="sans-serif" font-size="14.00" fill="#000000"> &#160;Exports</text>
<g id="clust1" class="cluster">
<title>cluster_HomePageModule</title>
<polygon fill="none" stroke="#000000" stroke-dasharray="1,5" points="8,-70 8,-268 708,-268 708,-70 8,-70"/>
</g>
<g id="clust2" class="cluster">
<title>cluster_HomePageModule_declarations</title>
<polygon fill="none" stroke="#000000" points="16,-78 16,-130 700,-130 700,-78 16,-78"/>
</g>
<g id="clust8" class="cluster">
<title>cluster_HomePageModule_exports</title>
<polygon fill="none" stroke="#000000" points="275,-208 275,-260 451,-260 451,-208 275,-208"/>
</g>
<!-- BreadcrumbsComponent -->
<g id="node1" class="node">
<title>BreadcrumbsComponent</title>
<polygon fill="#ffffb3" stroke="#000000" points="691.9692,-122 536.0308,-122 536.0308,-86 691.9692,-86 691.9692,-122"/>
<text text-anchor="middle" x="614" y="-99.8" font-family="Times,serif" font-size="14.00" fill="#000000">BreadcrumbsComponent</text>
</g>
<!-- HomePageModule -->
<g id="node5" class="node">
<title>HomePageModule</title>
<polygon fill="#8dd3c7" stroke="#000000" points="423.4734,-187 420.4734,-191 399.4734,-191 396.4734,-187 302.5266,-187 302.5266,-151 423.4734,-151 423.4734,-187"/>
<text text-anchor="middle" x="363" y="-164.8" font-family="Times,serif" font-size="14.00" fill="#000000">HomePageModule</text>
</g>
<!-- BreadcrumbsComponent&#45;&gt;HomePageModule -->
<g id="edge1" class="edge">
<title>BreadcrumbsComponent&#45;&gt;HomePageModule</title>
<path fill="none" stroke="#000000" d="M614,-122.1061C614,-141.3391 614,-169 614,-169 614,-169 433.7601,-169 433.7601,-169"/>
<polygon fill="#000000" stroke="#000000" points="433.7601,-165.5001 423.7601,-169 433.7601,-172.5001 433.7601,-165.5001"/>
</g>
<!-- CategoriesComponent -->
<g id="node2" class="node">
<title>CategoriesComponent</title>
<polygon fill="#ffffb3" stroke="#000000" points="517.6993,-122 376.3007,-122 376.3007,-86 517.6993,-86 517.6993,-122"/>
<text text-anchor="middle" x="447" y="-99.8" font-family="Times,serif" font-size="14.00" fill="#000000">CategoriesComponent</text>
</g>
<!-- CategoriesComponent&#45;&gt;HomePageModule -->
<g id="edge2" class="edge">
<title>CategoriesComponent&#45;&gt;HomePageModule</title>
<path fill="none" stroke="#000000" d="M399.9435,-122.1061C399.9435,-122.1061 399.9435,-140.991 399.9435,-140.991"/>
<polygon fill="#000000" stroke="#000000" points="396.4436,-140.9909 399.9435,-150.991 403.4436,-140.991 396.4436,-140.9909"/>
</g>
<!-- OptionsViewComponent -->
<g id="node3" class="node">
<title>OptionsViewComponent</title>
<polygon fill="#ffffb3" stroke="#000000" points="357.9832,-122 202.0168,-122 202.0168,-86 357.9832,-86 357.9832,-122"/>
<text text-anchor="middle" x="280" y="-99.8" font-family="Times,serif" font-size="14.00" fill="#000000">OptionsViewComponent</text>
</g>
<!-- OptionsViewComponent&#45;&gt;HomePageModule -->
<g id="edge3" class="edge">
<title>OptionsViewComponent&#45;&gt;HomePageModule</title>
<path fill="none" stroke="#000000" d="M330.2525,-122.1061C330.2525,-122.1061 330.2525,-140.991 330.2525,-140.991"/>
<polygon fill="#000000" stroke="#000000" points="326.7525,-140.9909 330.2525,-150.991 333.7525,-140.991 326.7525,-140.9909"/>
</g>
<!-- ToolSelectionComponent -->
<g id="node4" class="node">
<title>ToolSelectionComponent</title>
<polygon fill="#ffffb3" stroke="#000000" points="183.8738,-122 24.1262,-122 24.1262,-86 183.8738,-86 183.8738,-122"/>
<text text-anchor="middle" x="104" y="-99.8" font-family="Times,serif" font-size="14.00" fill="#000000">ToolSelectionComponent</text>
</g>
<!-- ToolSelectionComponent&#45;&gt;HomePageModule -->
<g id="edge4" class="edge">
<title>ToolSelectionComponent&#45;&gt;HomePageModule</title>
<path fill="none" stroke="#000000" d="M104,-122.1061C104,-141.3391 104,-169 104,-169 104,-169 292.276,-169 292.276,-169"/>
<polygon fill="#000000" stroke="#000000" points="292.276,-172.5001 302.276,-169 292.276,-165.5001 292.276,-172.5001"/>
</g>
<!-- BreadcrumbsComponent  -->
<g id="node6" class="node">
<title>BreadcrumbsComponent </title>
<polygon fill="#fb8072" stroke="#000000" points="442.9699,-252 283.0301,-252 283.0301,-216 442.9699,-216 442.9699,-252"/>
<text text-anchor="middle" x="363" y="-229.8" font-family="Times,serif" font-size="14.00" fill="#000000">BreadcrumbsComponent </text>
</g>
<!-- HomePageModule&#45;&gt;BreadcrumbsComponent  -->
<g id="edge5" class="edge">
<title>HomePageModule&#45;&gt;BreadcrumbsComponent </title>
<path fill="none" stroke="#000000" stroke-dasharray="5,2" d="M363,-187.1061C363,-187.1061 363,-205.991 363,-205.991"/>
<polygon fill="#000000" stroke="#000000" points="359.5001,-205.9909 363,-215.991 366.5001,-205.991 359.5001,-205.9909"/>
</g>
</g>
</svg>
