<?xml version="1.0" encoding="UTF-8" standalone="no"?>
<!DOCTYPE svg PUBLIC "-//W3C//DTD SVG 1.1//EN"
 "http://www.w3.org/Graphics/SVG/1.1/DTD/svg11.dtd">
<!-- Generated by graphviz version 2.40.1 (20161225.0304)
 -->
<!-- Title: dependencies Pages: 1 -->
<svg width="577pt" height="284pt"
 viewBox="0.00 0.00 577.00 284.00" xmlns="http://www.w3.org/2000/svg" xmlns:xlink="http://www.w3.org/1999/xlink">
<g id="graph0" class="graph" transform="scale(1 1) rotate(0) translate(4 280)">
<title>dependencies</title>
<polygon fill="#ffffff" stroke="transparent" points="-4,4 -4,-280 573,-280 573,4 -4,4"/>
<text text-anchor="start" x="263.5091" y="-42.4" font-family="sans-serif" font-weight="bold" font-size="14.00" fill="#000000">Legend</text>
<polygon fill="#ffffb3" stroke="transparent" points="50.5,-10 50.5,-30 70.5,-30 70.5,-10 50.5,-10"/>
<text text-anchor="start" x="74.129" y="-15.4" font-family="sans-serif" font-size="14.00" fill="#000000"> &#160;Declarations</text>
<polygon fill="#8dd3c7" stroke="transparent" points="163.5,-10 163.5,-30 183.5,-30 183.5,-10 163.5,-10"/>
<text text-anchor="start" x="187.2251" y="-15.4" font-family="sans-serif" font-size="14.00" fill="#000000"> &#160;Module</text>
<polygon fill="#80b1d3" stroke="transparent" points="249.5,-10 249.5,-30 269.5,-30 269.5,-10 249.5,-10"/>
<text text-anchor="start" x="273.2812" y="-15.4" font-family="sans-serif" font-size="14.00" fill="#000000"> &#160;Bootstrap</text>
<polygon fill="#fdb462" stroke="transparent" points="346.5,-10 346.5,-30 366.5,-30 366.5,-10 346.5,-10"/>
<text text-anchor="start" x="370.1732" y="-15.4" font-family="sans-serif" font-size="14.00" fill="#000000"> &#160;Providers</text>
<polygon fill="#fb8072" stroke="transparent" points="442.5,-10 442.5,-30 462.5,-30 462.5,-10 442.5,-10"/>
<text text-anchor="start" x="466.2258" y="-15.4" font-family="sans-serif" font-size="14.00" fill="#000000"> &#160;Exports</text>
<g id="clust1" class="cluster">
<title>cluster_SidebarModule</title>
<polygon fill="none" stroke="#000000" stroke-dasharray="1,5" points="8,-70 8,-268 561,-268 561,-70 8,-70"/>
</g>
<g id="clust2" class="cluster">
<title>cluster_SidebarModule_declarations</title>
<polygon fill="none" stroke="#000000" points="16,-78 16,-130 553,-130 553,-78 16,-78"/>
</g>
<g id="clust7" class="cluster">
<title>cluster_SidebarModule_exports</title>
<polygon fill="none" stroke="#000000" points="200,-208 200,-260 384,-260 384,-208 200,-208"/>
</g>
<!-- CourseChipComponent -->
<g id="node1" class="node">
<title>CourseChipComponent</title>
<polygon fill="#ffffb3" stroke="#000000" points="545.2162,-122 396.7838,-122 396.7838,-86 545.2162,-86 545.2162,-122"/>
<text text-anchor="middle" x="471" y="-99.8" font-family="Times,serif" font-size="14.00" fill="#000000">CourseChipComponent</text>
</g>
<!-- SidebarModule -->
<g id="node4" class="node">
<title>SidebarModule</title>
<polygon fill="#8dd3c7" stroke="#000000" points="343.3133,-187 340.3133,-191 319.3133,-191 316.3133,-187 240.6867,-187 240.6867,-151 343.3133,-151 343.3133,-187"/>
<text text-anchor="middle" x="292" y="-164.8" font-family="Times,serif" font-size="14.00" fill="#000000">SidebarModule</text>
</g>
<!-- CourseChipComponent&#45;&gt;SidebarModule -->
<g id="edge1" class="edge">
<title>CourseChipComponent&#45;&gt;SidebarModule</title>
<path fill="none" stroke="#000000" d="M471,-122.1061C471,-141.3391 471,-169 471,-169 471,-169 353.2942,-169 353.2942,-169"/>
<polygon fill="#000000" stroke="#000000" points="353.2943,-165.5001 343.2942,-169 353.2942,-172.5001 353.2943,-165.5001"/>
</g>
<!-- CourseSelectionComponent -->
<g id="node2" class="node">
<title>CourseSelectionComponent</title>
<polygon fill="#ffffb3" stroke="#000000" points="378.587,-122 205.413,-122 205.413,-86 378.587,-86 378.587,-122"/>
<text text-anchor="middle" x="292" y="-99.8" font-family="Times,serif" font-size="14.00" fill="#000000">CourseSelectionComponent</text>
</g>
<!-- CourseSelectionComponent&#45;&gt;SidebarModule -->
<g id="edge2" class="edge">
<title>CourseSelectionComponent&#45;&gt;SidebarModule</title>
<path fill="none" stroke="#000000" d="M292,-122.1061C292,-122.1061 292,-140.991 292,-140.991"/>
<polygon fill="#000000" stroke="#000000" points="288.5001,-140.9909 292,-150.991 295.5001,-140.991 288.5001,-140.9909"/>
</g>
<!-- CourseSidebarComponent -->
<g id="node3" class="node">
<title>CourseSidebarComponent</title>
<polygon fill="#ffffb3" stroke="#000000" points="187.752,-122 24.248,-122 24.248,-86 187.752,-86 187.752,-122"/>
<text text-anchor="middle" x="106" y="-99.8" font-family="Times,serif" font-size="14.00" fill="#000000">CourseSidebarComponent</text>
</g>
<!-- CourseSidebarComponent&#45;&gt;SidebarModule -->
<g id="edge3" class="edge">
<title>CourseSidebarComponent&#45;&gt;SidebarModule</title>
<path fill="none" stroke="#000000" d="M106,-122.1061C106,-141.3391 106,-169 106,-169 106,-169 230.6823,-169 230.6823,-169"/>
<polygon fill="#000000" stroke="#000000" points="230.6823,-172.5001 240.6823,-169 230.6823,-165.5001 230.6823,-172.5001"/>
</g>
<!-- CourseSidebarComponent  -->
<g id="node5" class="node">
<title>CourseSidebarComponent </title>
<polygon fill="#fb8072" stroke="#000000" points="375.752,-252 208.248,-252 208.248,-216 375.752,-216 375.752,-252"/>
<text text-anchor="middle" x="292" y="-229.8" font-family="Times,serif" font-size="14.00" fill="#000000">CourseSidebarComponent </text>
</g>
<!-- SidebarModule&#45;&gt;CourseSidebarComponent  -->
<g id="edge4" class="edge">
<title>SidebarModule&#45;&gt;CourseSidebarComponent </title>
<path fill="none" stroke="#000000" stroke-dasharray="5,2" d="M292,-187.1061C292,-187.1061 292,-205.991 292,-205.991"/>
<polygon fill="#000000" stroke="#000000" points="288.5001,-205.9909 292,-215.991 295.5001,-205.991 288.5001,-205.9909"/>
</g>
</g>
</svg>
