<?xml version="1.0" encoding="UTF-8" standalone="no"?>
<!DOCTYPE svg PUBLIC "-//W3C//DTD SVG 1.1//EN"
 "http://www.w3.org/Graphics/SVG/1.1/DTD/svg11.dtd">
<!-- Generated by graphviz version 2.40.1 (20161225.0304)
 -->
<!-- Title: dependencies Pages: 1 -->
<svg width="2911pt" height="363pt"
 viewBox="0.00 0.00 2911.00 363.00" xmlns="http://www.w3.org/2000/svg" xmlns:xlink="http://www.w3.org/1999/xlink">
<g id="graph0" class="graph" transform="scale(1 1) rotate(0) translate(4 359)">
<title>dependencies</title>
<polygon fill="#ffffff" stroke="transparent" points="-4,4 -4,-359 2907,-359 2907,4 -4,4"/>
<text text-anchor="start" x="1430.5091" y="-42.4" font-family="sans-serif" font-weight="bold" font-size="14.00" fill="#000000">Legend</text>
<polygon fill="#ffffb3" stroke="transparent" points="1217.5,-10 1217.5,-30 1237.5,-30 1237.5,-10 1217.5,-10"/>
<text text-anchor="start" x="1241.129" y="-15.4" font-family="sans-serif" font-size="14.00" fill="#000000"> &#160;Declarations</text>
<polygon fill="#8dd3c7" stroke="transparent" points="1330.5,-10 1330.5,-30 1350.5,-30 1350.5,-10 1330.5,-10"/>
<text text-anchor="start" x="1354.2251" y="-15.4" font-family="sans-serif" font-size="14.00" fill="#000000"> &#160;Module</text>
<polygon fill="#80b1d3" stroke="transparent" points="1416.5,-10 1416.5,-30 1436.5,-30 1436.5,-10 1416.5,-10"/>
<text text-anchor="start" x="1440.2812" y="-15.4" font-family="sans-serif" font-size="14.00" fill="#000000"> &#160;Bootstrap</text>
<polygon fill="#fdb462" stroke="transparent" points="1513.5,-10 1513.5,-30 1533.5,-30 1533.5,-10 1513.5,-10"/>
<text text-anchor="start" x="1537.1732" y="-15.4" font-family="sans-serif" font-size="14.00" fill="#000000"> &#160;Providers</text>
<polygon fill="#fb8072" stroke="transparent" points="1609.5,-10 1609.5,-30 1629.5,-30 1629.5,-10 1609.5,-10"/>
<text text-anchor="start" x="1633.2258" y="-15.4" font-family="sans-serif" font-size="14.00" fill="#000000"> &#160;Exports</text>
<g id="clust1" class="cluster">
<title>cluster_AppModule</title>
<polygon fill="none" stroke="#000000" stroke-dasharray="1,5" points="900,-146 900,-347 1504,-347 1504,-146 900,-146"/>
</g>
<g id="clust2" class="cluster">
<title>cluster_AppModule_declarations</title>
<polygon fill="none" stroke="#000000" points="1374,-154 1374,-206 1496,-206 1496,-154 1374,-154"/>
</g>
<g id="clust4" class="cluster">
<title>cluster_AppModule_imports</title>
<polygon fill="none" stroke="#000000" points="1098,-154 1098,-206 1366,-206 1366,-154 1098,-154"/>
</g>
<g id="clust6" class="cluster">
<title>cluster_AppModule_bootstrap</title>
<polygon fill="none" stroke="#000000" points="1171,-287 1171,-339 1295,-339 1295,-287 1171,-287"/>
</g>
<g id="clust7" class="cluster">
<title>cluster_AppModule_providers</title>
<polygon fill="none" stroke="#000000" points="908,-154 908,-206 1090,-206 1090,-154 908,-154"/>
</g>
<g id="clust8" class="cluster">
<title>cluster_CourseTabsModule</title>
<polygon fill="none" stroke="#000000" stroke-dasharray="1,5" points="2523,-70 2523,-279 2895,-279 2895,-70 2523,-70"/>
</g>
<g id="clust9" class="cluster">
<title>cluster_CourseTabsModule_declarations</title>
<polygon fill="none" stroke="#000000" points="2531,-78 2531,-130 2887,-130 2887,-78 2531,-78"/>
</g>
<g id="clust13" class="cluster">
<title>cluster_CourseTabsModule_exports</title>
<polygon fill="none" stroke="#000000" points="2619,-219 2619,-271 2787,-271 2787,-219 2619,-219"/>
</g>
<g id="clust16" class="cluster">
<title>cluster_HomePageModule</title>
<polygon fill="none" stroke="#000000" stroke-dasharray="1,5" points="8,-70 8,-138 1208,-138 1208,-70 8,-70"/>
</g>
<g id="clust17" class="cluster">
<title>cluster_HomePageModule_declarations</title>
<polygon fill="none" stroke="#000000" points="360,-78 360,-130 1200,-130 1200,-78 360,-78"/>
</g>
<g id="clust24" class="cluster">
<title>cluster_HomePageModule_exports</title>
<polygon fill="none" stroke="#000000" points="16,-78 16,-130 352,-130 352,-78 16,-78"/>
</g>
<g id="clust27" class="cluster">
<title>cluster_ToolPageModule</title>
<polygon fill="none" stroke="#000000" stroke-dasharray="1,5" points="1216,-70 1216,-138 2515,-138 2515,-70 1216,-70"/>
</g>
<g id="clust28" class="cluster">
<title>cluster_ToolPageModule_declarations</title>
<polygon fill="none" stroke="#000000" points="1224,-78 1224,-130 2507,-130 2507,-78 1224,-78"/>
</g>
<!-- AppComponent -->
<g id="node1" class="node">
<title>AppComponent</title>
<polygon fill="#ffffb3" stroke="#000000" points="1487.9399,-198 1382.0601,-198 1382.0601,-162 1487.9399,-162 1487.9399,-198"/>
<text text-anchor="middle" x="1435" y="-175.8" font-family="Times,serif" font-size="14.00" fill="#000000">AppComponent</text>
</g>
<!-- AppModule -->
<g id="node2" class="node">
<title>AppModule</title>
<polygon fill="#8dd3c7" stroke="#000000" points="1274.6571,-263 1271.6571,-267 1250.6571,-267 1247.6571,-263 1191.3429,-263 1191.3429,-227 1274.6571,-227 1274.6571,-263"/>
<text text-anchor="middle" x="1233" y="-240.8" font-family="Times,serif" font-size="14.00" fill="#000000">AppModule</text>
</g>
<!-- AppComponent&#45;&gt;AppModule -->
<g id="edge1" class="edge">
<title>AppComponent&#45;&gt;AppModule</title>
<path fill="none" stroke="#000000" d="M1435,-198.1061C1435,-217.3391 1435,-245 1435,-245 1435,-245 1284.8545,-245 1284.8545,-245"/>
<polygon fill="#000000" stroke="#000000" points="1284.8546,-241.5001 1274.8545,-245 1284.8545,-248.5001 1284.8546,-241.5001"/>
</g>
<!-- AppComponent  -->
<g id="node5" class="node">
<title>AppComponent </title>
<polygon fill="#80b1d3" stroke="#000000" points="1287.439,-331 1178.561,-331 1178.561,-295 1287.439,-295 1287.439,-331"/>
<text text-anchor="middle" x="1233" y="-308.8" font-family="Times,serif" font-size="14.00" fill="#000000">AppComponent </text>
</g>
<!-- AppModule&#45;&gt;AppComponent  -->
<g id="edge4" class="edge">
<title>AppModule&#45;&gt;AppComponent </title>
<path fill="none" stroke="#000000" stroke-dasharray="1,5" d="M1233,-263.2228C1233,-263.2228 1233,-284.7269 1233,-284.7269"/>
<polygon fill="#000000" stroke="#000000" points="1229.5001,-284.7269 1233,-294.7269 1236.5001,-284.727 1229.5001,-284.7269"/>
</g>
<!-- HomePageModule -->
<g id="node3" class="node">
<title>HomePageModule</title>
<polygon fill="#8dd3c7" stroke="#000000" points="1226.4734,-198 1223.4734,-202 1202.4734,-202 1199.4734,-198 1105.5266,-198 1105.5266,-162 1226.4734,-162 1226.4734,-198"/>
<text text-anchor="middle" x="1166" y="-175.8" font-family="Times,serif" font-size="14.00" fill="#000000">HomePageModule</text>
</g>
<!-- HomePageModule&#45;&gt;AppModule -->
<g id="edge2" class="edge">
<title>HomePageModule&#45;&gt;AppModule</title>
<path fill="none" stroke="#000000" d="M1208.8293,-198.1061C1208.8293,-198.1061 1208.8293,-216.991 1208.8293,-216.991"/>
<polygon fill="#000000" stroke="#000000" points="1205.3293,-216.9909 1208.8293,-226.991 1212.3293,-216.991 1205.3293,-216.9909"/>
</g>
<!-- BreadcrumbsComponent  -->
<g id="node16" class="node">
<title>BreadcrumbsComponent </title>
<polygon fill="#fb8072" stroke="#000000" points="343.9699,-122 184.0301,-122 184.0301,-86 343.9699,-86 343.9699,-122"/>
<text text-anchor="middle" x="264" y="-99.8" font-family="Times,serif" font-size="14.00" fill="#000000">BreadcrumbsComponent </text>
</g>
<!-- HomePageModule&#45;&gt;BreadcrumbsComponent  -->
<g id="edge14" class="edge">
<title>HomePageModule&#45;&gt;BreadcrumbsComponent </title>
<path fill="none" stroke="#000000" stroke-dasharray="5,2" d="M1127.1311,-161.8097C1127.1311,-158.4624 1127.1311,-156 1127.1311,-156 1127.1311,-156 264,-156 264,-156 264,-156 264,-132.1871 264,-132.1871"/>
<polygon fill="#000000" stroke="#000000" points="267.5001,-132.187 264,-122.1871 260.5001,-132.1871 267.5001,-132.187"/>
</g>
<!-- ErrorPageComponent  -->
<g id="node17" class="node">
<title>ErrorPageComponent </title>
<polygon fill="#fb8072" stroke="#000000" points="165.5792,-122 24.4208,-122 24.4208,-86 165.5792,-86 165.5792,-122"/>
<text text-anchor="middle" x="95" y="-99.8" font-family="Times,serif" font-size="14.00" fill="#000000">ErrorPageComponent </text>
</g>
<!-- HomePageModule&#45;&gt;ErrorPageComponent  -->
<g id="edge15" class="edge">
<title>HomePageModule&#45;&gt;ErrorPageComponent </title>
<path fill="none" stroke="#000000" stroke-dasharray="5,2" d="M1116.3222,-161.92C1116.3222,-160.1536 1116.3222,-159 1116.3222,-159 1116.3222,-159 95,-159 95,-159 95,-159 95,-132.0091 95,-132.0091"/>
<polygon fill="#000000" stroke="#000000" points="98.5001,-132.009 95,-122.0091 91.5001,-132.0091 98.5001,-132.009"/>
</g>
<!-- ToolPageModule -->
<g id="node4" class="node">
<title>ToolPageModule</title>
<polygon fill="#8dd3c7" stroke="#000000" points="1357.705,-198 1354.705,-202 1333.705,-202 1330.705,-198 1244.295,-198 1244.295,-162 1357.705,-162 1357.705,-198"/>
<text text-anchor="middle" x="1301" y="-175.8" font-family="Times,serif" font-size="14.00" fill="#000000">ToolPageModule</text>
</g>
<!-- ToolPageModule&#45;&gt;AppModule -->
<g id="edge3" class="edge">
<title>ToolPageModule&#45;&gt;AppModule</title>
<path fill="none" stroke="#000000" d="M1259.6129,-198.1061C1259.6129,-198.1061 1259.6129,-216.991 1259.6129,-216.991"/>
<polygon fill="#000000" stroke="#000000" points="1256.113,-216.9909 1259.6129,-226.991 1263.113,-216.991 1256.113,-216.9909"/>
</g>
<!-- AuthGuardService -->
<g id="node6" class="node">
<title>AuthGuardService</title>
<ellipse fill="#fdb462" stroke="#000000" cx="999" cy="-180" rx="83.3674" ry="18"/>
<text text-anchor="middle" x="999" y="-175.8" font-family="Times,serif" font-size="14.00" fill="#000000">AuthGuardService</text>
</g>
<!-- AuthGuardService&#45;&gt;AppModule -->
<g id="edge5" class="edge">
<title>AuthGuardService&#45;&gt;AppModule</title>
<path fill="none" stroke="#000000" d="M999,-198.1061C999,-217.3391 999,-245 999,-245 999,-245 1181.1655,-245 1181.1655,-245"/>
<polygon fill="#000000" stroke="#000000" points="1181.1655,-248.5001 1191.1655,-245 1181.1655,-241.5001 1181.1655,-248.5001"/>
</g>
<!-- CourseSelectionComponent -->
<g id="node7" class="node">
<title>CourseSelectionComponent</title>
<polygon fill="#ffffb3" stroke="#000000" points="2878.587,-122 2705.413,-122 2705.413,-86 2878.587,-86 2878.587,-122"/>
<text text-anchor="middle" x="2792" y="-99.8" font-family="Times,serif" font-size="14.00" fill="#000000">CourseSelectionComponent</text>
</g>
<!-- CourseTabsModule -->
<g id="node9" class="node">
<title>CourseTabsModule</title>
<polygon fill="#8dd3c7" stroke="#000000" points="2766.4187,-198 2763.4187,-202 2742.4187,-202 2739.4187,-198 2639.5813,-198 2639.5813,-162 2766.4187,-162 2766.4187,-198"/>
<text text-anchor="middle" x="2703" y="-175.8" font-family="Times,serif" font-size="14.00" fill="#000000">CourseTabsModule</text>
</g>
<!-- CourseSelectionComponent&#45;&gt;CourseTabsModule -->
<g id="edge6" class="edge">
<title>CourseSelectionComponent&#45;&gt;CourseTabsModule</title>
<path fill="none" stroke="#000000" d="M2735.8328,-122.0109C2735.8328,-122.0109 2735.8328,-151.855 2735.8328,-151.855"/>
<polygon fill="#000000" stroke="#000000" points="2732.3328,-151.8549 2735.8328,-161.855 2739.3328,-151.855 2732.3328,-151.8549"/>
</g>
<!-- CourseTabsComponent -->
<g id="node8" class="node">
<title>CourseTabsComponent</title>
<polygon fill="#ffffb3" stroke="#000000" points="2687.2007,-122 2538.7993,-122 2538.7993,-86 2687.2007,-86 2687.2007,-122"/>
<text text-anchor="middle" x="2613" y="-99.8" font-family="Times,serif" font-size="14.00" fill="#000000">CourseTabsComponent</text>
</g>
<!-- CourseTabsComponent&#45;&gt;CourseTabsModule -->
<g id="edge7" class="edge">
<title>CourseTabsComponent&#45;&gt;CourseTabsModule</title>
<path fill="none" stroke="#000000" d="M2663.4457,-122.0109C2663.4457,-122.0109 2663.4457,-151.855 2663.4457,-151.855"/>
<polygon fill="#000000" stroke="#000000" points="2659.9457,-151.8549 2663.4457,-161.855 2666.9457,-151.855 2659.9457,-151.8549"/>
</g>
<!-- CourseTabsComponent  -->
<g id="node10" class="node">
<title>CourseTabsComponent </title>
<polygon fill="#fb8072" stroke="#000000" points="2778.7009,-263 2627.2991,-263 2627.2991,-227 2778.7009,-227 2778.7009,-263"/>
<text text-anchor="middle" x="2703" y="-240.8" font-family="Times,serif" font-size="14.00" fill="#000000">CourseTabsComponent </text>
</g>
<!-- CourseTabsModule&#45;&gt;CourseTabsComponent  -->
<g id="edge8" class="edge">
<title>CourseTabsModule&#45;&gt;CourseTabsComponent </title>
<path fill="none" stroke="#000000" stroke-dasharray="5,2" d="M2703,-198.1061C2703,-198.1061 2703,-216.991 2703,-216.991"/>
<polygon fill="#000000" stroke="#000000" points="2699.5001,-216.9909 2703,-226.991 2706.5001,-216.991 2699.5001,-216.9909"/>
</g>
<!-- BreadcrumbsComponent -->
<g id="node11" class="node">
<title>BreadcrumbsComponent</title>
<polygon fill="#ffffb3" stroke="#000000" points="1191.9692,-122 1036.0308,-122 1036.0308,-86 1191.9692,-86 1191.9692,-122"/>
<text text-anchor="middle" x="1114" y="-99.8" font-family="Times,serif" font-size="14.00" fill="#000000">BreadcrumbsComponent</text>
</g>
<!-- BreadcrumbsComponent&#45;&gt;HomePageModule -->
<g id="edge9" class="edge">
<title>BreadcrumbsComponent&#45;&gt;HomePageModule</title>
<path fill="none" stroke="#000000" d="M1181.1757,-122.0109C1181.1757,-122.0109 1181.1757,-151.855 1181.1757,-151.855"/>
<polygon fill="#000000" stroke="#000000" points="1177.6758,-151.8549 1181.1757,-161.855 1184.6758,-151.855 1177.6758,-151.8549"/>
</g>
<!-- CategoriesComponent -->
<g id="node12" class="node">
<title>CategoriesComponent</title>
<polygon fill="#ffffb3" stroke="#000000" points="1017.6993,-122 876.3007,-122 876.3007,-86 1017.6993,-86 1017.6993,-122"/>
<text text-anchor="middle" x="947" y="-99.8" font-family="Times,serif" font-size="14.00" fill="#000000">CategoriesComponent</text>
</g>
<!-- CategoriesComponent&#45;&gt;HomePageModule -->
<g id="edge10" class="edge">
<title>CategoriesComponent&#45;&gt;HomePageModule</title>
<path fill="none" stroke="#000000" d="M966.583,-122.1274C966.583,-132.7109 966.583,-144 966.583,-144 966.583,-144 1170.3668,-144 1170.3668,-144 1170.3668,-144 1170.3668,-151.5782 1170.3668,-151.5782"/>
<polygon fill="#000000" stroke="#000000" points="1166.8669,-151.5781 1170.3668,-161.5782 1173.8669,-151.5782 1166.8669,-151.5781"/>
</g>
<!-- ErrorPageComponent -->
<g id="node13" class="node">
<title>ErrorPageComponent</title>
<polygon fill="#ffffb3" stroke="#000000" points="858.0786,-122 719.9214,-122 719.9214,-86 858.0786,-86 858.0786,-122"/>
<text text-anchor="middle" x="789" y="-99.8" font-family="Times,serif" font-size="14.00" fill="#000000">ErrorPageComponent</text>
</g>
<!-- ErrorPageComponent&#45;&gt;HomePageModule -->
<g id="edge11" class="edge">
<title>ErrorPageComponent&#45;&gt;HomePageModule</title>
<path fill="none" stroke="#000000" d="M789,-122.4854C789,-134.1399 789,-147 789,-147 789,-147 1159.5579,-147 1159.5579,-147 1159.5579,-147 1159.5579,-151.9551 1159.5579,-151.9551"/>
<polygon fill="#000000" stroke="#000000" points="1156.058,-151.9551 1159.5579,-161.9551 1163.058,-151.9552 1156.058,-151.9551"/>
</g>
<!-- OptionsViewComponent -->
<g id="node14" class="node">
<title>OptionsViewComponent</title>
<polygon fill="#ffffb3" stroke="#000000" points="701.9832,-122 546.0168,-122 546.0168,-86 701.9832,-86 701.9832,-122"/>
<text text-anchor="middle" x="624" y="-99.8" font-family="Times,serif" font-size="14.00" fill="#000000">OptionsViewComponent</text>
</g>
<!-- OptionsViewComponent&#45;&gt;HomePageModule -->
<g id="edge12" class="edge">
<title>OptionsViewComponent&#45;&gt;HomePageModule</title>
<path fill="none" stroke="#000000" d="M624,-122.1804C624,-135.0382 624,-150 624,-150 624,-150 1148.749,-150 1148.749,-150 1148.749,-150 1148.749,-151.8568 1148.749,-151.8568"/>
<polygon fill="#000000" stroke="#000000" points="1145.249,-151.8568 1148.749,-161.8568 1152.249,-151.8568 1145.249,-151.8568"/>
</g>
<!-- ToolSelectionComponent -->
<g id="node15" class="node">
<title>ToolSelectionComponent</title>
<polygon fill="#ffffb3" stroke="#000000" points="527.8738,-122 368.1262,-122 368.1262,-86 527.8738,-86 527.8738,-122"/>
<text text-anchor="middle" x="448" y="-99.8" font-family="Times,serif" font-size="14.00" fill="#000000">ToolSelectionComponent</text>
</g>
<!-- ToolSelectionComponent&#45;&gt;HomePageModule -->
<g id="edge13" class="edge">
<title>ToolSelectionComponent&#45;&gt;HomePageModule</title>
<path fill="none" stroke="#000000" d="M448,-122.2458C448,-136.1772 448,-153 448,-153 448,-153 1137.94,-153 1137.94,-153 1137.94,-153 1137.94,-153.8841 1137.94,-153.8841"/>
<polygon fill="#000000" stroke="#000000" points="1134.4402,-151.8408 1137.94,-161.8408 1141.4402,-151.8409 1134.4402,-151.8408"/>
</g>
<!-- CodeEditorComponent -->
<g id="node18" class="node">
<title>CodeEditorComponent</title>
<polygon fill="#ffffb3" stroke="#000000" points="2498.8781,-122 2353.1219,-122 2353.1219,-86 2498.8781,-86 2498.8781,-122"/>
<text text-anchor="middle" x="2426" y="-99.8" font-family="Times,serif" font-size="14.00" fill="#000000">CodeEditorComponent</text>
</g>
<!-- CodeEditorComponent&#45;&gt;ToolPageModule -->
<g id="edge16" class="edge">
<title>CodeEditorComponent&#45;&gt;ToolPageModule</title>
<path fill="none" stroke="#000000" d="M2426,-122.0664C2426,-131.4587 2426,-141 2426,-141 2426,-141 1343.4518,-141 1343.4518,-141 1343.4518,-141 1343.4518,-151.8701 1343.4518,-151.8701"/>
<polygon fill="#000000" stroke="#000000" points="1339.9519,-151.8701 1343.4518,-161.8701 1346.9519,-151.8701 1339.9519,-151.8701"/>
</g>
<!-- IssueCardComponent -->
<g id="node19" class="node">
<title>IssueCardComponent</title>
<polygon fill="#ffffb3" stroke="#000000" points="2334.8089,-122 2197.1911,-122 2197.1911,-86 2334.8089,-86 2334.8089,-122"/>
<text text-anchor="middle" x="2266" y="-99.8" font-family="Times,serif" font-size="14.00" fill="#000000">IssueCardComponent</text>
</g>
<!-- IssueCardComponent&#45;&gt;ToolPageModule -->
<g id="edge17" class="edge">
<title>IssueCardComponent&#45;&gt;ToolPageModule</title>
<path fill="none" stroke="#000000" d="M2266,-122.1944C2266,-130.2782 2266,-138 2266,-138 2266,-138 1329.3012,-138 1329.3012,-138 1329.3012,-138 1329.3012,-151.9445 1329.3012,-151.9445"/>
<polygon fill="#000000" stroke="#000000" points="1325.8013,-151.9444 1329.3012,-161.9445 1332.8013,-151.9445 1325.8013,-151.9444"/>
</g>
<!-- IssueContainerComponent -->
<g id="node20" class="node">
<title>IssueContainerComponent</title>
<polygon fill="#ffffb3" stroke="#000000" points="2179.8047,-122 2014.1953,-122 2014.1953,-86 2179.8047,-86 2179.8047,-122"/>
<text text-anchor="middle" x="2097" y="-99.8" font-family="Times,serif" font-size="14.00" fill="#000000">IssueContainerComponent</text>
</g>
<!-- IssueContainerComponent&#45;&gt;ToolPageModule -->
<g id="edge18" class="edge">
<title>IssueContainerComponent&#45;&gt;ToolPageModule</title>
<path fill="none" stroke="#000000" d="M2097,-122.0328C2097,-128.8526 2097,-135 2097,-135 2097,-135 1315.1506,-135 1315.1506,-135 1315.1506,-135 1315.1506,-151.9561 1315.1506,-151.9561"/>
<polygon fill="#000000" stroke="#000000" points="1311.6507,-151.956 1315.1506,-161.9561 1318.6507,-151.9561 1311.6507,-151.956"/>
</g>
<!-- IssueDetailsComponent -->
<g id="node21" class="node">
<title>IssueDetailsComponent</title>
<polygon fill="#ffffb3" stroke="#000000" points="1995.7492,-122 1846.2508,-122 1846.2508,-86 1995.7492,-86 1995.7492,-122"/>
<text text-anchor="middle" x="1921" y="-99.8" font-family="Times,serif" font-size="14.00" fill="#000000">IssueDetailsComponent</text>
</g>
<!-- IssueDetailsComponent&#45;&gt;ToolPageModule -->
<g id="edge19" class="edge">
<title>IssueDetailsComponent&#45;&gt;ToolPageModule</title>
<path fill="none" stroke="#000000" d="M1921,-122.207C1921,-127.5549 1921,-132 1921,-132 1921,-132 1301,-132 1301,-132 1301,-132 1301,-151.8533 1301,-151.8533"/>
<polygon fill="#000000" stroke="#000000" points="1297.5001,-151.8532 1301,-161.8533 1304.5001,-151.8533 1297.5001,-151.8532"/>
</g>
<!-- IssueListComponent -->
<g id="node22" class="node">
<title>IssueListComponent</title>
<polygon fill="#ffffb3" stroke="#000000" points="1827.8753,-122 1696.1247,-122 1696.1247,-86 1827.8753,-86 1827.8753,-122"/>
<text text-anchor="middle" x="1762" y="-99.8" font-family="Times,serif" font-size="14.00" fill="#000000">IssueListComponent</text>
</g>
<!-- IssueListComponent&#45;&gt;ToolPageModule -->
<g id="edge20" class="edge">
<title>IssueListComponent&#45;&gt;ToolPageModule</title>
<path fill="none" stroke="#000000" d="M1762,-122.1686C1762,-126.0459 1762,-129 1762,-129 1762,-129 1286.8494,-129 1286.8494,-129 1286.8494,-129 1286.8494,-151.8757 1286.8494,-151.8757"/>
<polygon fill="#000000" stroke="#000000" points="1283.3495,-151.8757 1286.8494,-161.8757 1290.3495,-151.8757 1283.3495,-151.8757"/>
</g>
<!-- IssueNavComponent -->
<g id="node23" class="node">
<title>IssueNavComponent</title>
<polygon fill="#ffffb3" stroke="#000000" points="1677.9187,-122 1544.0813,-122 1544.0813,-86 1677.9187,-86 1677.9187,-122"/>
<text text-anchor="middle" x="1611" y="-99.8" font-family="Times,serif" font-size="14.00" fill="#000000">IssueNavComponent</text>
</g>
<!-- IssueNavComponent&#45;&gt;ToolPageModule -->
<g id="edge21" class="edge">
<title>IssueNavComponent&#45;&gt;ToolPageModule</title>
<path fill="none" stroke="#000000" d="M1611,-122.1679C1611,-124.4478 1611,-126 1611,-126 1611,-126 1272.6988,-126 1272.6988,-126 1272.6988,-126 1272.6988,-151.7181 1272.6988,-151.7181"/>
<polygon fill="#000000" stroke="#000000" points="1269.1989,-151.718 1272.6988,-161.7181 1276.1989,-151.7181 1269.1989,-151.718"/>
</g>
<!-- StatBadgeComponent -->
<g id="node24" class="node">
<title>StatBadgeComponent</title>
<polygon fill="#ffffb3" stroke="#000000" points="1526.3767,-122 1387.6233,-122 1387.6233,-86 1526.3767,-86 1526.3767,-122"/>
<text text-anchor="middle" x="1457" y="-99.8" font-family="Times,serif" font-size="14.00" fill="#000000">StatBadgeComponent</text>
</g>
<!-- StatBadgeComponent&#45;&gt;ToolPageModule -->
<g id="edge22" class="edge">
<title>StatBadgeComponent&#45;&gt;ToolPageModule</title>
<path fill="none" stroke="#000000" d="M1387.4037,-104C1380.6042,-104 1376.1638,-104 1376.1638,-104 1376.1638,-104 1376.1638,-180 1376.1638,-180 1376.1638,-180 1367.9687,-180 1367.9687,-180"/>
<polygon fill="#000000" stroke="#000000" points="1367.9687,-176.5001 1357.9687,-180 1367.9687,-183.5001 1367.9687,-176.5001"/>
</g>
<!-- ToolViewComponent -->
<g id="node25" class="node">
<title>ToolViewComponent</title>
<polygon fill="#ffffb3" stroke="#000000" points="1370.094,-122 1231.906,-122 1231.906,-86 1370.094,-86 1370.094,-122"/>
<text text-anchor="middle" x="1301" y="-99.8" font-family="Times,serif" font-size="14.00" fill="#000000">ToolViewComponent</text>
</g>
<!-- ToolViewComponent&#45;&gt;ToolPageModule -->
<g id="edge23" class="edge">
<title>ToolViewComponent&#45;&gt;ToolPageModule</title>
<path fill="none" stroke="#000000" d="M1258.5482,-122.0109C1258.5482,-122.0109 1258.5482,-151.855 1258.5482,-151.855"/>
<polygon fill="#000000" stroke="#000000" points="1255.0483,-151.8549 1258.5482,-161.855 1262.0483,-151.855 1255.0483,-151.8549"/>
</g>
</g>
</svg>
