<?xml version="1.0" encoding="UTF-8" standalone="no"?>
<!DOCTYPE svg PUBLIC "-//W3C//DTD SVG 1.1//EN"
 "http://www.w3.org/Graphics/SVG/1.1/DTD/svg11.dtd">
<!-- Generated by graphviz version 2.40.1 (20161225.0304)
 -->
<!-- Title: dependencies Pages: 1 -->
<svg width="880pt" height="284pt"
 viewBox="0.00 0.00 880.00 284.00" xmlns="http://www.w3.org/2000/svg" xmlns:xlink="http://www.w3.org/1999/xlink">
<g id="graph0" class="graph" transform="scale(1 1) rotate(0) translate(4 280)">
<title>dependencies</title>
<polygon fill="#ffffff" stroke="transparent" points="-4,4 -4,-280 876,-280 876,4 -4,4"/>
<text text-anchor="start" x="415.0091" y="-42.4" font-family="sans-serif" font-weight="bold" font-size="14.00" fill="#000000">Legend</text>
<polygon fill="#ffffb3" stroke="transparent" points="202,-10 202,-30 222,-30 222,-10 202,-10"/>
<text text-anchor="start" x="225.629" y="-15.4" font-family="sans-serif" font-size="14.00" fill="#000000"> &#160;Declarations</text>
<polygon fill="#8dd3c7" stroke="transparent" points="315,-10 315,-30 335,-30 335,-10 315,-10"/>
<text text-anchor="start" x="338.7251" y="-15.4" font-family="sans-serif" font-size="14.00" fill="#000000"> &#160;Module</text>
<polygon fill="#80b1d3" stroke="transparent" points="401,-10 401,-30 421,-30 421,-10 401,-10"/>
<text text-anchor="start" x="424.7812" y="-15.4" font-family="sans-serif" font-size="14.00" fill="#000000"> &#160;Bootstrap</text>
<polygon fill="#fdb462" stroke="transparent" points="498,-10 498,-30 518,-30 518,-10 498,-10"/>
<text text-anchor="start" x="521.6732" y="-15.4" font-family="sans-serif" font-size="14.00" fill="#000000"> &#160;Providers</text>
<polygon fill="#fb8072" stroke="transparent" points="594,-10 594,-30 614,-30 614,-10 594,-10"/>
<text text-anchor="start" x="617.7258" y="-15.4" font-family="sans-serif" font-size="14.00" fill="#000000"> &#160;Exports</text>
<g id="clust1" class="cluster">
<title>cluster_HomePageModule</title>
<polygon fill="none" stroke="#000000" stroke-dasharray="1,5" points="8,-70 8,-268 864,-268 864,-70 8,-70"/>
</g>
<g id="clust2" class="cluster">
<title>cluster_HomePageModule_declarations</title>
<polygon fill="none" stroke="#000000" points="16,-78 16,-130 856,-130 856,-78 16,-78"/>
</g>
<g id="clust9" class="cluster">
<title>cluster_HomePageModule_exports</title>
<polygon fill="none" stroke="#000000" points="282,-208 282,-260 618,-260 618,-208 282,-208"/>
</g>
<!-- BreadcrumbsComponent -->
<g id="node1" class="node">
<title>BreadcrumbsComponent</title>
<polygon fill="#ffffb3" stroke="#000000" points="847.9692,-122 692.0308,-122 692.0308,-86 847.9692,-86 847.9692,-122"/>
<text text-anchor="middle" x="770" y="-99.8" font-family="Times,serif" font-size="14.00" fill="#000000">BreadcrumbsComponent</text>
</g>
<!-- HomePageModule -->
<g id="node6" class="node">
<title>HomePageModule</title>
<polygon fill="#8dd3c7" stroke="#000000" points="505.4734,-187 502.4734,-191 481.4734,-191 478.4734,-187 384.5266,-187 384.5266,-151 505.4734,-151 505.4734,-187"/>
<text text-anchor="middle" x="445" y="-164.8" font-family="Times,serif" font-size="14.00" fill="#000000">HomePageModule</text>
</g>
<!-- BreadcrumbsComponent&#45;&gt;HomePageModule -->
<g id="edge1" class="edge">
<title>BreadcrumbsComponent&#45;&gt;HomePageModule</title>
<path fill="none" stroke="#000000" d="M770,-122.2843C770,-143.3211 770,-175 770,-175 770,-175 515.7488,-175 515.7488,-175"/>
<polygon fill="#000000" stroke="#000000" points="515.7488,-171.5001 505.7488,-175 515.7487,-178.5001 515.7488,-171.5001"/>
</g>
<!-- CategoriesComponent -->
<g id="node2" class="node">
<title>CategoriesComponent</title>
<polygon fill="#ffffb3" stroke="#000000" points="673.6993,-122 532.3007,-122 532.3007,-86 673.6993,-86 673.6993,-122"/>
<text text-anchor="middle" x="603" y="-99.8" font-family="Times,serif" font-size="14.00" fill="#000000">CategoriesComponent</text>
</g>
<!-- CategoriesComponent&#45;&gt;HomePageModule -->
<g id="edge2" class="edge">
<title>CategoriesComponent&#45;&gt;HomePageModule</title>
<path fill="none" stroke="#000000" d="M571.0675,-122.0225C571.0675,-139.3734 571.0675,-163 571.0675,-163 571.0675,-163 515.8181,-163 515.8181,-163"/>
<polygon fill="#000000" stroke="#000000" points="515.8182,-159.5001 505.8181,-163 515.8181,-166.5001 515.8182,-159.5001"/>
</g>
<!-- ErrorPageComponent -->
<g id="node3" class="node">
<title>ErrorPageComponent</title>
<polygon fill="#ffffb3" stroke="#000000" points="514.0786,-122 375.9214,-122 375.9214,-86 514.0786,-86 514.0786,-122"/>
<text text-anchor="middle" x="445" y="-99.8" font-family="Times,serif" font-size="14.00" fill="#000000">ErrorPageComponent</text>
</g>
<!-- ErrorPageComponent&#45;&gt;HomePageModule -->
<g id="edge3" class="edge">
<title>ErrorPageComponent&#45;&gt;HomePageModule</title>
<path fill="none" stroke="#000000" d="M445,-122.1061C445,-122.1061 445,-140.991 445,-140.991"/>
<polygon fill="#000000" stroke="#000000" points="441.5001,-140.9909 445,-150.991 448.5001,-140.991 441.5001,-140.9909"/>
</g>
<!-- OptionsViewComponent -->
<g id="node4" class="node">
<title>OptionsViewComponent</title>
<polygon fill="#ffffb3" stroke="#000000" points="357.9832,-122 202.0168,-122 202.0168,-86 357.9832,-86 357.9832,-122"/>
<text text-anchor="middle" x="280" y="-99.8" font-family="Times,serif" font-size="14.00" fill="#000000">OptionsViewComponent</text>
</g>
<!-- OptionsViewComponent&#45;&gt;HomePageModule -->
<g id="edge4" class="edge">
<title>OptionsViewComponent&#45;&gt;HomePageModule</title>
<path fill="none" stroke="#000000" d="M324.1012,-122.0225C324.1012,-139.3734 324.1012,-163 324.1012,-163 324.1012,-163 374.1964,-163 374.1964,-163"/>
<polygon fill="#000000" stroke="#000000" points="374.1964,-166.5001 384.1964,-163 374.1963,-159.5001 374.1964,-166.5001"/>
</g>
<!-- ToolSelectionComponent -->
<g id="node5" class="node">
<title>ToolSelectionComponent</title>
<polygon fill="#ffffb3" stroke="#000000" points="183.8738,-122 24.1262,-122 24.1262,-86 183.8738,-86 183.8738,-122"/>
<text text-anchor="middle" x="104" y="-99.8" font-family="Times,serif" font-size="14.00" fill="#000000">ToolSelectionComponent</text>
</g>
<!-- ToolSelectionComponent&#45;&gt;HomePageModule -->
<g id="edge5" class="edge">
<title>ToolSelectionComponent&#45;&gt;HomePageModule</title>
<path fill="none" stroke="#000000" d="M104,-122.2843C104,-143.3211 104,-175 104,-175 104,-175 374.429,-175 374.429,-175"/>
<polygon fill="#000000" stroke="#000000" points="374.429,-178.5001 384.429,-175 374.4289,-171.5001 374.429,-178.5001"/>
</g>
<!-- BreadcrumbsComponent  -->
<g id="node7" class="node">
<title>BreadcrumbsComponent </title>
<polygon fill="#fb8072" stroke="#000000" points="609.9699,-252 450.0301,-252 450.0301,-216 609.9699,-216 609.9699,-252"/>
<text text-anchor="middle" x="530" y="-229.8" font-family="Times,serif" font-size="14.00" fill="#000000">BreadcrumbsComponent </text>
</g>
<!-- HomePageModule&#45;&gt;BreadcrumbsComponent  -->
<g id="edge6" class="edge">
<title>HomePageModule&#45;&gt;BreadcrumbsComponent </title>
<path fill="none" stroke="#000000" stroke-dasharray="5,2" d="M477.8761,-187.1061C477.8761,-187.1061 477.8761,-205.991 477.8761,-205.991"/>
<polygon fill="#000000" stroke="#000000" points="474.3761,-205.9909 477.8761,-215.991 481.3761,-205.991 474.3761,-205.9909"/>
</g>
<!-- ErrorPageComponent  -->
<g id="node8" class="node">
<title>ErrorPageComponent </title>
<polygon fill="#fb8072" stroke="#000000" points="431.5792,-252 290.4208,-252 290.4208,-216 431.5792,-216 431.5792,-252"/>
<text text-anchor="middle" x="361" y="-229.8" font-family="Times,serif" font-size="14.00" fill="#000000">ErrorPageComponent </text>
</g>
<!-- HomePageModule&#45;&gt;ErrorPageComponent  -->
<g id="edge7" class="edge">
<title>HomePageModule&#45;&gt;ErrorPageComponent </title>
<path fill="none" stroke="#000000" stroke-dasharray="5,2" d="M408.1513,-187.1061C408.1513,-187.1061 408.1513,-205.991 408.1513,-205.991"/>
<polygon fill="#000000" stroke="#000000" points="404.6514,-205.9909 408.1513,-215.991 411.6514,-205.991 404.6514,-205.9909"/>
</g>
</g>
</svg>
