<?xml version="1.0" encoding="UTF-8" standalone="no"?>
<!DOCTYPE svg PUBLIC "-//W3C//DTD SVG 1.1//EN"
 "http://www.w3.org/Graphics/SVG/1.1/DTD/svg11.dtd">
<!-- Generated by graphviz version 2.40.1 (20161225.0304)
 -->
<!-- Title: dependencies Pages: 1 -->
<svg width="743pt" height="284pt"
 viewBox="0.00 0.00 743.00 284.00" xmlns="http://www.w3.org/2000/svg" xmlns:xlink="http://www.w3.org/1999/xlink">
<g id="graph0" class="graph" transform="scale(1 1) rotate(0) translate(4 280)">
<title>dependencies</title>
<polygon fill="#ffffff" stroke="transparent" points="-4,4 -4,-280 739,-280 739,4 -4,4"/>
<text text-anchor="start" x="346.5091" y="-42.4" font-family="sans-serif" font-weight="bold" font-size="14.00" fill="#000000">Legend</text>
<polygon fill="#ffffb3" stroke="transparent" points="133.5,-10 133.5,-30 153.5,-30 153.5,-10 133.5,-10"/>
<text text-anchor="start" x="157.129" y="-15.4" font-family="sans-serif" font-size="14.00" fill="#000000"> &#160;Declarations</text>
<polygon fill="#8dd3c7" stroke="transparent" points="246.5,-10 246.5,-30 266.5,-30 266.5,-10 246.5,-10"/>
<text text-anchor="start" x="270.2251" y="-15.4" font-family="sans-serif" font-size="14.00" fill="#000000"> &#160;Module</text>
<polygon fill="#80b1d3" stroke="transparent" points="332.5,-10 332.5,-30 352.5,-30 352.5,-10 332.5,-10"/>
<text text-anchor="start" x="356.2812" y="-15.4" font-family="sans-serif" font-size="14.00" fill="#000000"> &#160;Bootstrap</text>
<polygon fill="#fdb462" stroke="transparent" points="429.5,-10 429.5,-30 449.5,-30 449.5,-10 429.5,-10"/>
<text text-anchor="start" x="453.1732" y="-15.4" font-family="sans-serif" font-size="14.00" fill="#000000"> &#160;Providers</text>
<polygon fill="#fb8072" stroke="transparent" points="525.5,-10 525.5,-30 545.5,-30 545.5,-10 525.5,-10"/>
<text text-anchor="start" x="549.2258" y="-15.4" font-family="sans-serif" font-size="14.00" fill="#000000"> &#160;Exports</text>
<g id="clust1" class="cluster">
<title>cluster_CourseTabsModule</title>
<polygon fill="none" stroke="#000000" stroke-dasharray="1,5" points="8,-70 8,-268 727,-268 727,-70 8,-70"/>
</g>
<g id="clust2" class="cluster">
<title>cluster_CourseTabsModule_declarations</title>
<polygon fill="none" stroke="#000000" points="16,-78 16,-130 719,-130 719,-78 16,-78"/>
</g>
<g id="clust8" class="cluster">
<title>cluster_CourseTabsModule_exports</title>
<polygon fill="none" stroke="#000000" points="281,-208 281,-260 449,-260 449,-208 281,-208"/>
</g>
<!-- CourseChipComponent -->
<g id="node1" class="node">
<title>CourseChipComponent</title>
<polygon fill="#ffffb3" stroke="#000000" points="711.2162,-122 562.7838,-122 562.7838,-86 711.2162,-86 711.2162,-122"/>
<text text-anchor="middle" x="637" y="-99.8" font-family="Times,serif" font-size="14.00" fill="#000000">CourseChipComponent</text>
</g>
<!-- CourseTabsModule -->
<g id="node5" class="node">
<title>CourseTabsModule</title>
<polygon fill="#8dd3c7" stroke="#000000" points="428.4187,-187 425.4187,-191 404.4187,-191 401.4187,-187 301.5813,-187 301.5813,-151 428.4187,-151 428.4187,-187"/>
<text text-anchor="middle" x="365" y="-164.8" font-family="Times,serif" font-size="14.00" fill="#000000">CourseTabsModule</text>
</g>
<!-- CourseChipComponent&#45;&gt;CourseTabsModule -->
<g id="edge1" class="edge">
<title>CourseChipComponent&#45;&gt;CourseTabsModule</title>
<path fill="none" stroke="#000000" d="M637,-122.1061C637,-141.3391 637,-169 637,-169 637,-169 438.4286,-169 438.4286,-169"/>
<polygon fill="#000000" stroke="#000000" points="438.4287,-165.5001 428.4286,-169 438.4286,-172.5001 438.4287,-165.5001"/>
</g>
<!-- CourseSelectionComponent -->
<g id="node2" class="node">
<title>CourseSelectionComponent</title>
<polygon fill="#ffffb3" stroke="#000000" points="544.587,-122 371.413,-122 371.413,-86 544.587,-86 544.587,-122"/>
<text text-anchor="middle" x="458" y="-99.8" font-family="Times,serif" font-size="14.00" fill="#000000">CourseSelectionComponent</text>
</g>
<!-- CourseSelectionComponent&#45;&gt;CourseTabsModule -->
<g id="edge2" class="edge">
<title>CourseSelectionComponent&#45;&gt;CourseTabsModule</title>
<path fill="none" stroke="#000000" d="M399.8328,-122.1061C399.8328,-122.1061 399.8328,-140.991 399.8328,-140.991"/>
<polygon fill="#000000" stroke="#000000" points="396.3328,-140.9909 399.8328,-150.991 403.3328,-140.991 396.3328,-140.9909"/>
</g>
<!-- CourseSidebarComponent -->
<g id="node3" class="node">
<title>CourseSidebarComponent</title>
<polygon fill="#ffffb3" stroke="#000000" points="353.752,-122 190.248,-122 190.248,-86 353.752,-86 353.752,-122"/>
<text text-anchor="middle" x="272" y="-99.8" font-family="Times,serif" font-size="14.00" fill="#000000">CourseSidebarComponent</text>
</g>
<!-- CourseSidebarComponent&#45;&gt;CourseTabsModule -->
<g id="edge3" class="edge">
<title>CourseSidebarComponent&#45;&gt;CourseTabsModule</title>
<path fill="none" stroke="#000000" d="M327.8334,-122.1061C327.8334,-122.1061 327.8334,-140.991 327.8334,-140.991"/>
<polygon fill="#000000" stroke="#000000" points="324.3335,-140.9909 327.8334,-150.991 331.3335,-140.991 324.3335,-140.9909"/>
</g>
<!-- CourseTabsComponent -->
<g id="node4" class="node">
<title>CourseTabsComponent</title>
<polygon fill="#ffffb3" stroke="#000000" points="172.2007,-122 23.7993,-122 23.7993,-86 172.2007,-86 172.2007,-122"/>
<text text-anchor="middle" x="98" y="-99.8" font-family="Times,serif" font-size="14.00" fill="#000000">CourseTabsComponent</text>
</g>
<!-- CourseTabsComponent&#45;&gt;CourseTabsModule -->
<g id="edge4" class="edge">
<title>CourseTabsComponent&#45;&gt;CourseTabsModule</title>
<path fill="none" stroke="#000000" d="M98,-122.1061C98,-141.3391 98,-169 98,-169 98,-169 291.7247,-169 291.7247,-169"/>
<polygon fill="#000000" stroke="#000000" points="291.7248,-172.5001 301.7247,-169 291.7247,-165.5001 291.7248,-172.5001"/>
</g>
<!-- CourseTabsComponent  -->
<g id="node6" class="node">
<title>CourseTabsComponent </title>
<polygon fill="#fb8072" stroke="#000000" points="440.7009,-252 289.2991,-252 289.2991,-216 440.7009,-216 440.7009,-252"/>
<text text-anchor="middle" x="365" y="-229.8" font-family="Times,serif" font-size="14.00" fill="#000000">CourseTabsComponent </text>
</g>
<!-- CourseTabsModule&#45;&gt;CourseTabsComponent  -->
<g id="edge5" class="edge">
<title>CourseTabsModule&#45;&gt;CourseTabsComponent </title>
<path fill="none" stroke="#000000" stroke-dasharray="5,2" d="M365,-187.1061C365,-187.1061 365,-205.991 365,-205.991"/>
<polygon fill="#000000" stroke="#000000" points="361.5001,-205.9909 365,-215.991 368.5001,-205.991 361.5001,-205.9909"/>
</g>
</g>
</svg>
