<?xml version="1.0" encoding="UTF-8" standalone="no"?>
<!DOCTYPE svg PUBLIC "-//W3C//DTD SVG 1.1//EN"
 "http://www.w3.org/Graphics/SVG/1.1/DTD/svg11.dtd">
<!-- Generated by graphviz version 2.40.1 (20161225.0304)
 -->
<!-- Title: dependencies Pages: 1 -->
<svg width="504pt" height="284pt"
 viewBox="0.00 0.00 504.00 284.00" xmlns="http://www.w3.org/2000/svg" xmlns:xlink="http://www.w3.org/1999/xlink">
<g id="graph0" class="graph" transform="scale(1 1) rotate(0) translate(4 280)">
<title>dependencies</title>
<polygon fill="#ffffff" stroke="transparent" points="-4,4 -4,-280 500,-280 500,4 -4,4"/>
<text text-anchor="start" x="227.0091" y="-42.4" font-family="sans-serif" font-weight="bold" font-size="14.00" fill="#000000">Legend</text>
<polygon fill="#ffffb3" stroke="transparent" points="14,-10 14,-30 34,-30 34,-10 14,-10"/>
<text text-anchor="start" x="37.629" y="-15.4" font-family="sans-serif" font-size="14.00" fill="#000000"> &#160;Declarations</text>
<polygon fill="#8dd3c7" stroke="transparent" points="127,-10 127,-30 147,-30 147,-10 127,-10"/>
<text text-anchor="start" x="150.7251" y="-15.4" font-family="sans-serif" font-size="14.00" fill="#000000"> &#160;Module</text>
<polygon fill="#80b1d3" stroke="transparent" points="213,-10 213,-30 233,-30 233,-10 213,-10"/>
<text text-anchor="start" x="236.7812" y="-15.4" font-family="sans-serif" font-size="14.00" fill="#000000"> &#160;Bootstrap</text>
<polygon fill="#fdb462" stroke="transparent" points="310,-10 310,-30 330,-30 330,-10 310,-10"/>
<text text-anchor="start" x="333.6732" y="-15.4" font-family="sans-serif" font-size="14.00" fill="#000000"> &#160;Providers</text>
<polygon fill="#fb8072" stroke="transparent" points="406,-10 406,-30 426,-30 426,-10 406,-10"/>
<text text-anchor="start" x="429.7258" y="-15.4" font-family="sans-serif" font-size="14.00" fill="#000000"> &#160;Exports</text>
<g id="clust1" class="cluster">
<title>cluster_CourseTabsModule</title>
<polygon fill="none" stroke="#000000" stroke-dasharray="1,5" points="62,-70 62,-268 434,-268 434,-70 62,-70"/>
</g>
<g id="clust2" class="cluster">
<title>cluster_CourseTabsModule_declarations</title>
<polygon fill="none" stroke="#000000" points="70,-78 70,-130 426,-130 426,-78 70,-78"/>
</g>
<g id="clust6" class="cluster">
<title>cluster_CourseTabsModule_exports</title>
<polygon fill="none" stroke="#000000" points="158,-208 158,-260 326,-260 326,-208 158,-208"/>
</g>
<!-- CourseSelectionComponent -->
<g id="node1" class="node">
<title>CourseSelectionComponent</title>
<polygon fill="#ffffb3" stroke="#000000" points="417.587,-122 244.413,-122 244.413,-86 417.587,-86 417.587,-122"/>
<text text-anchor="middle" x="331" y="-99.8" font-family="Times,serif" font-size="14.00" fill="#000000">CourseSelectionComponent</text>
</g>
<!-- CourseTabsModule -->
<g id="node3" class="node">
<title>CourseTabsModule</title>
<polygon fill="#8dd3c7" stroke="#000000" points="305.4187,-187 302.4187,-191 281.4187,-191 278.4187,-187 178.5813,-187 178.5813,-151 305.4187,-151 305.4187,-187"/>
<text text-anchor="middle" x="242" y="-164.8" font-family="Times,serif" font-size="14.00" fill="#000000">CourseTabsModule</text>
</g>
<!-- CourseSelectionComponent&#45;&gt;CourseTabsModule -->
<g id="edge1" class="edge">
<title>CourseSelectionComponent&#45;&gt;CourseTabsModule</title>
<path fill="none" stroke="#000000" d="M274.8328,-122.1061C274.8328,-122.1061 274.8328,-140.991 274.8328,-140.991"/>
<polygon fill="#000000" stroke="#000000" points="271.3328,-140.9909 274.8328,-150.991 278.3328,-140.991 271.3328,-140.9909"/>
</g>
<!-- CourseTabsComponent -->
<g id="node2" class="node">
<title>CourseTabsComponent</title>
<polygon fill="#ffffb3" stroke="#000000" points="226.2007,-122 77.7993,-122 77.7993,-86 226.2007,-86 226.2007,-122"/>
<text text-anchor="middle" x="152" y="-99.8" font-family="Times,serif" font-size="14.00" fill="#000000">CourseTabsComponent</text>
</g>
<!-- CourseTabsComponent&#45;&gt;CourseTabsModule -->
<g id="edge2" class="edge">
<title>CourseTabsComponent&#45;&gt;CourseTabsModule</title>
<path fill="none" stroke="#000000" d="M202.4457,-122.1061C202.4457,-122.1061 202.4457,-140.991 202.4457,-140.991"/>
<polygon fill="#000000" stroke="#000000" points="198.9457,-140.9909 202.4457,-150.991 205.9457,-140.991 198.9457,-140.9909"/>
</g>
<!-- CourseTabsComponent  -->
<g id="node4" class="node">
<title>CourseTabsComponent </title>
<polygon fill="#fb8072" stroke="#000000" points="317.7009,-252 166.2991,-252 166.2991,-216 317.7009,-216 317.7009,-252"/>
<text text-anchor="middle" x="242" y="-229.8" font-family="Times,serif" font-size="14.00" fill="#000000">CourseTabsComponent </text>
</g>
<!-- CourseTabsModule&#45;&gt;CourseTabsComponent  -->
<g id="edge3" class="edge">
<title>CourseTabsModule&#45;&gt;CourseTabsComponent </title>
<path fill="none" stroke="#000000" stroke-dasharray="5,2" d="M242,-187.1061C242,-187.1061 242,-205.991 242,-205.991"/>
<polygon fill="#000000" stroke="#000000" points="238.5001,-205.9909 242,-215.991 245.5001,-205.991 238.5001,-205.9909"/>
</g>
</g>
</svg>
