<?xml version="1.0" encoding="UTF-8" standalone="no"?>
<!DOCTYPE svg PUBLIC "-//W3C//DTD SVG 1.1//EN"
 "http://www.w3.org/Graphics/SVG/1.1/DTD/svg11.dtd">
<!-- Generated by graphviz version 2.40.1 (20161225.0304)
 -->
<!-- Title: dependencies Pages: 1 -->
<svg width="773pt" height="284pt"
 viewBox="0.00 0.00 773.00 284.00" xmlns="http://www.w3.org/2000/svg" xmlns:xlink="http://www.w3.org/1999/xlink">
<g id="graph0" class="graph" transform="scale(1 1) rotate(0) translate(4 280)">
<title>dependencies</title>
<polygon fill="#ffffff" stroke="transparent" points="-4,4 -4,-280 769,-280 769,4 -4,4"/>
<text text-anchor="start" x="361.5091" y="-42.4" font-family="sans-serif" font-weight="bold" font-size="14.00" fill="#000000">Legend</text>
<polygon fill="#ffffb3" stroke="transparent" points="148.5,-10 148.5,-30 168.5,-30 168.5,-10 148.5,-10"/>
<text text-anchor="start" x="172.129" y="-15.4" font-family="sans-serif" font-size="14.00" fill="#000000"> &#160;Declarations</text>
<polygon fill="#8dd3c7" stroke="transparent" points="261.5,-10 261.5,-30 281.5,-30 281.5,-10 261.5,-10"/>
<text text-anchor="start" x="285.2251" y="-15.4" font-family="sans-serif" font-size="14.00" fill="#000000"> &#160;Module</text>
<polygon fill="#80b1d3" stroke="transparent" points="347.5,-10 347.5,-30 367.5,-30 367.5,-10 347.5,-10"/>
<text text-anchor="start" x="371.2812" y="-15.4" font-family="sans-serif" font-size="14.00" fill="#000000"> &#160;Bootstrap</text>
<polygon fill="#fdb462" stroke="transparent" points="444.5,-10 444.5,-30 464.5,-30 464.5,-10 444.5,-10"/>
<text text-anchor="start" x="468.1732" y="-15.4" font-family="sans-serif" font-size="14.00" fill="#000000"> &#160;Providers</text>
<polygon fill="#fb8072" stroke="transparent" points="540.5,-10 540.5,-30 560.5,-30 560.5,-10 540.5,-10"/>
<text text-anchor="start" x="564.2258" y="-15.4" font-family="sans-serif" font-size="14.00" fill="#000000"> &#160;Exports</text>
<g id="clust1" class="cluster">
<title>cluster_AppModule</title>
<polygon fill="none" stroke="#000000" stroke-dasharray="1,5" points="8,-70 8,-268 757,-268 757,-70 8,-70"/>
</g>
<g id="clust2" class="cluster">
<title>cluster_AppModule_declarations</title>
<polygon fill="none" stroke="#000000" points="627,-78 627,-130 749,-130 749,-78 627,-78"/>
</g>
<g id="clust4" class="cluster">
<title>cluster_AppModule_imports</title>
<polygon fill="none" stroke="#000000" points="206,-78 206,-130 619,-130 619,-78 206,-78"/>
</g>
<g id="clust6" class="cluster">
<title>cluster_AppModule_bootstrap</title>
<polygon fill="none" stroke="#000000" points="344,-208 344,-260 468,-260 468,-208 344,-208"/>
</g>
<g id="clust7" class="cluster">
<title>cluster_AppModule_providers</title>
<polygon fill="none" stroke="#000000" points="16,-78 16,-130 198,-130 198,-78 16,-78"/>
</g>
<!-- AppComponent -->
<g id="node1" class="node">
<title>AppComponent</title>
<polygon fill="#ffffb3" stroke="#000000" points="740.9399,-122 635.0601,-122 635.0601,-86 740.9399,-86 740.9399,-122"/>
<text text-anchor="middle" x="688" y="-99.8" font-family="Times,serif" font-size="14.00" fill="#000000">AppComponent</text>
</g>
<!-- AppModule -->
<g id="node2" class="node">
<title>AppModule</title>
<polygon fill="#8dd3c7" stroke="#000000" points="447.6571,-187 444.6571,-191 423.6571,-191 420.6571,-187 364.3429,-187 364.3429,-151 447.6571,-151 447.6571,-187"/>
<text text-anchor="middle" x="406" y="-164.8" font-family="Times,serif" font-size="14.00" fill="#000000">AppModule</text>
</g>
<!-- AppComponent&#45;&gt;AppModule -->
<g id="edge1" class="edge">
<title>AppComponent&#45;&gt;AppModule</title>
<path fill="none" stroke="#000000" d="M688,-122.2843C688,-143.3211 688,-175 688,-175 688,-175 457.9137,-175 457.9137,-175"/>
<polygon fill="#000000" stroke="#000000" points="457.9138,-171.5001 447.9137,-175 457.9137,-178.5001 457.9138,-171.5001"/>
</g>
<!-- AppComponent  -->
<g id="node6" class="node">
<title>AppComponent </title>
<polygon fill="#80b1d3" stroke="#000000" points="460.439,-252 351.561,-252 351.561,-216 460.439,-216 460.439,-252"/>
<text text-anchor="middle" x="406" y="-229.8" font-family="Times,serif" font-size="14.00" fill="#000000">AppComponent </text>
</g>
<!-- AppModule&#45;&gt;AppComponent  -->
<g id="edge5" class="edge">
<title>AppModule&#45;&gt;AppComponent </title>
<path fill="none" stroke="#000000" stroke-dasharray="1,5" d="M406,-187.1061C406,-187.1061 406,-205.991 406,-205.991"/>
<polygon fill="#000000" stroke="#000000" points="402.5001,-205.9909 406,-215.991 409.5001,-205.991 402.5001,-205.9909"/>
</g>
<!-- CourseTabsModule -->
<g id="node3" class="node">
<title>CourseTabsModule</title>
<polygon fill="#8dd3c7" stroke="#000000" points="611.4187,-122 608.4187,-126 587.4187,-126 584.4187,-122 484.5813,-122 484.5813,-86 611.4187,-86 611.4187,-122"/>
<text text-anchor="middle" x="548" y="-99.8" font-family="Times,serif" font-size="14.00" fill="#000000">CourseTabsModule</text>
</g>
<!-- CourseTabsModule&#45;&gt;AppModule -->
<g id="edge2" class="edge">
<title>CourseTabsModule&#45;&gt;AppModule</title>
<path fill="none" stroke="#000000" d="M548,-122.0225C548,-139.3734 548,-163 548,-163 548,-163 457.8367,-163 457.8367,-163"/>
<polygon fill="#000000" stroke="#000000" points="457.8367,-159.5001 447.8367,-163 457.8366,-166.5001 457.8367,-159.5001"/>
</g>
<!-- HomePageModule -->
<g id="node4" class="node">
<title>HomePageModule</title>
<polygon fill="#8dd3c7" stroke="#000000" points="466.4734,-122 463.4734,-126 442.4734,-126 439.4734,-122 345.5266,-122 345.5266,-86 466.4734,-86 466.4734,-122"/>
<text text-anchor="middle" x="406" y="-99.8" font-family="Times,serif" font-size="14.00" fill="#000000">HomePageModule</text>
</g>
<!-- HomePageModule&#45;&gt;AppModule -->
<g id="edge3" class="edge">
<title>HomePageModule&#45;&gt;AppModule</title>
<path fill="none" stroke="#000000" d="M406,-122.1061C406,-122.1061 406,-140.991 406,-140.991"/>
<polygon fill="#000000" stroke="#000000" points="402.5001,-140.9909 406,-150.991 409.5001,-140.991 402.5001,-140.9909"/>
</g>
<!-- ToolPageModule -->
<g id="node5" class="node">
<title>ToolPageModule</title>
<polygon fill="#8dd3c7" stroke="#000000" points="327.705,-122 324.705,-126 303.705,-126 300.705,-122 214.295,-122 214.295,-86 327.705,-86 327.705,-122"/>
<text text-anchor="middle" x="271" y="-99.8" font-family="Times,serif" font-size="14.00" fill="#000000">ToolPageModule</text>
</g>
<!-- ToolPageModule&#45;&gt;AppModule -->
<g id="edge4" class="edge">
<title>ToolPageModule&#45;&gt;AppModule</title>
<path fill="none" stroke="#000000" d="M271,-122.0225C271,-139.3734 271,-163 271,-163 271,-163 354.0252,-163 354.0252,-163"/>
<polygon fill="#000000" stroke="#000000" points="354.0252,-166.5001 364.0252,-163 354.0251,-159.5001 354.0252,-166.5001"/>
</g>
<!-- AuthGuardService -->
<g id="node7" class="node">
<title>AuthGuardService</title>
<ellipse fill="#fdb462" stroke="#000000" cx="107" cy="-104" rx="83.3674" ry="18"/>
<text text-anchor="middle" x="107" y="-99.8" font-family="Times,serif" font-size="14.00" fill="#000000">AuthGuardService</text>
</g>
<!-- AuthGuardService&#45;&gt;AppModule -->
<g id="edge6" class="edge">
<title>AuthGuardService&#45;&gt;AppModule</title>
<path fill="none" stroke="#000000" d="M107,-122.2843C107,-143.3211 107,-175 107,-175 107,-175 354.1105,-175 354.1105,-175"/>
<polygon fill="#000000" stroke="#000000" points="354.1105,-178.5001 364.1105,-175 354.1105,-171.5001 354.1105,-178.5001"/>
</g>
</g>
</svg>
