<?xml version="1.0" encoding="UTF-8" standalone="no"?>
<!DOCTYPE svg PUBLIC "-//W3C//DTD SVG 1.1//EN"
 "http://www.w3.org/Graphics/SVG/1.1/DTD/svg11.dtd">
<!-- Generated by graphviz version 2.40.1 (20161225.0304)
 -->
<!-- Title: dependencies Pages: 1 -->
<svg width="2698pt" height="284pt"
 viewBox="0.00 0.00 2698.00 284.00" xmlns="http://www.w3.org/2000/svg" xmlns:xlink="http://www.w3.org/1999/xlink">
<g id="graph0" class="graph" transform="scale(1 1) rotate(0) translate(4 280)">
<title>dependencies</title>
<polygon fill="#ffffff" stroke="transparent" points="-4,4 -4,-280 2694,-280 2694,4 -4,4"/>
<text text-anchor="start" x="1324.0091" y="-42.4" font-family="sans-serif" font-weight="bold" font-size="14.00" fill="#000000">Legend</text>
<polygon fill="#ffffb3" stroke="transparent" points="1111,-10 1111,-30 1131,-30 1131,-10 1111,-10"/>
<text text-anchor="start" x="1134.629" y="-15.4" font-family="sans-serif" font-size="14.00" fill="#000000"> &#160;Declarations</text>
<polygon fill="#8dd3c7" stroke="transparent" points="1224,-10 1224,-30 1244,-30 1244,-10 1224,-10"/>
<text text-anchor="start" x="1247.7251" y="-15.4" font-family="sans-serif" font-size="14.00" fill="#000000"> &#160;Module</text>
<polygon fill="#80b1d3" stroke="transparent" points="1310,-10 1310,-30 1330,-30 1330,-10 1310,-10"/>
<text text-anchor="start" x="1333.7812" y="-15.4" font-family="sans-serif" font-size="14.00" fill="#000000"> &#160;Bootstrap</text>
<polygon fill="#fdb462" stroke="transparent" points="1407,-10 1407,-30 1427,-30 1427,-10 1407,-10"/>
<text text-anchor="start" x="1430.6732" y="-15.4" font-family="sans-serif" font-size="14.00" fill="#000000"> &#160;Providers</text>
<polygon fill="#fb8072" stroke="transparent" points="1503,-10 1503,-30 1523,-30 1523,-10 1503,-10"/>
<text text-anchor="start" x="1526.7258" y="-15.4" font-family="sans-serif" font-size="14.00" fill="#000000"> &#160;Exports</text>
<g id="clust1" class="cluster">
<title>cluster_AppModule</title>
<polygon fill="none" stroke="#000000" stroke-dasharray="1,5" points="8,-70 8,-268 2682,-268 2682,-70 8,-70"/>
</g>
<g id="clust2" class="cluster">
<title>cluster_AppModule_declarations</title>
<polygon fill="none" stroke="#000000" points="206,-78 206,-130 2674,-130 2674,-78 206,-78"/>
</g>
<g id="clust20" class="cluster">
<title>cluster_AppModule_bootstrap</title>
<polygon fill="none" stroke="#000000" points="1281,-208 1281,-260 1405,-260 1405,-208 1281,-208"/>
</g>
<g id="clust21" class="cluster">
<title>cluster_AppModule_providers</title>
<polygon fill="none" stroke="#000000" points="16,-78 16,-130 198,-130 198,-78 16,-78"/>
</g>
<!-- AppComponent -->
<g id="node1" class="node">
<title>AppComponent</title>
<polygon fill="#ffffb3" stroke="#000000" points="2665.9399,-122 2560.0601,-122 2560.0601,-86 2665.9399,-86 2665.9399,-122"/>
<text text-anchor="middle" x="2613" y="-99.8" font-family="Times,serif" font-size="14.00" fill="#000000">AppComponent</text>
</g>
<!-- AppModule -->
<g id="node16" class="node">
<title>AppModule</title>
<polygon fill="#8dd3c7" stroke="#000000" points="1384.6571,-187 1381.6571,-191 1360.6571,-191 1357.6571,-187 1301.3429,-187 1301.3429,-151 1384.6571,-151 1384.6571,-187"/>
<text text-anchor="middle" x="1343" y="-164.8" font-family="Times,serif" font-size="14.00" fill="#000000">AppModule</text>
</g>
<!-- AppComponent&#45;&gt;AppModule -->
<g id="edge1" class="edge">
<title>AppComponent&#45;&gt;AppModule</title>
<path fill="none" stroke="#000000" d="M2613,-122.3228C2613,-145.6602 2613,-183 2613,-183 2613,-183 1394.8934,-183 1394.8934,-183"/>
<polygon fill="#000000" stroke="#000000" points="1394.8935,-179.5001 1384.8934,-183 1394.8934,-186.5001 1394.8935,-179.5001"/>
</g>
<!-- BreadcrumbsComponent -->
<g id="node2" class="node">
<title>BreadcrumbsComponent</title>
<polygon fill="#ffffb3" stroke="#000000" points="2541.9692,-122 2386.0308,-122 2386.0308,-86 2541.9692,-86 2541.9692,-122"/>
<text text-anchor="middle" x="2464" y="-99.8" font-family="Times,serif" font-size="14.00" fill="#000000">BreadcrumbsComponent</text>
</g>
<!-- BreadcrumbsComponent&#45;&gt;AppModule -->
<g id="edge2" class="edge">
<title>BreadcrumbsComponent&#45;&gt;AppModule</title>
<path fill="none" stroke="#000000" d="M2464,-122.2921C2464,-144.2057 2464,-178 2464,-178 2464,-178 1394.8986,-178 1394.8986,-178"/>
<polygon fill="#000000" stroke="#000000" points="1394.8986,-174.5001 1384.8986,-178 1394.8986,-181.5001 1394.8986,-174.5001"/>
</g>
<!-- CategoriesComponent -->
<g id="node3" class="node">
<title>CategoriesComponent</title>
<polygon fill="#ffffb3" stroke="#000000" points="2367.6993,-122 2226.3007,-122 2226.3007,-86 2367.6993,-86 2367.6993,-122"/>
<text text-anchor="middle" x="2297" y="-99.8" font-family="Times,serif" font-size="14.00" fill="#000000">CategoriesComponent</text>
</g>
<!-- CategoriesComponent&#45;&gt;AppModule -->
<g id="edge3" class="edge">
<title>CategoriesComponent&#45;&gt;AppModule</title>
<path fill="none" stroke="#000000" d="M2297,-122.0267C2297,-142.7672 2297,-174 2297,-174 2297,-174 1394.9139,-174 1394.9139,-174"/>
<polygon fill="#000000" stroke="#000000" points="1394.9139,-170.5001 1384.9139,-174 1394.9138,-177.5001 1394.9139,-170.5001"/>
</g>
<!-- CourseChipComponent -->
<g id="node4" class="node">
<title>CourseChipComponent</title>
<polygon fill="#ffffb3" stroke="#000000" points="2208.2162,-122 2059.7838,-122 2059.7838,-86 2208.2162,-86 2208.2162,-122"/>
<text text-anchor="middle" x="2134" y="-99.8" font-family="Times,serif" font-size="14.00" fill="#000000">CourseChipComponent</text>
</g>
<!-- CourseChipComponent&#45;&gt;AppModule -->
<g id="edge4" class="edge">
<title>CourseChipComponent&#45;&gt;AppModule</title>
<path fill="none" stroke="#000000" d="M2134,-122.1061C2134,-141.3391 2134,-169 2134,-169 2134,-169 1394.6911,-169 1394.6911,-169"/>
<polygon fill="#000000" stroke="#000000" points="1394.6911,-165.5001 1384.6911,-169 1394.6911,-172.5001 1394.6911,-165.5001"/>
</g>
<!-- CourseSelectionComponent -->
<g id="node5" class="node">
<title>CourseSelectionComponent</title>
<polygon fill="#ffffb3" stroke="#000000" points="2041.587,-122 1868.413,-122 1868.413,-86 2041.587,-86 2041.587,-122"/>
<text text-anchor="middle" x="1955" y="-99.8" font-family="Times,serif" font-size="14.00" fill="#000000">CourseSelectionComponent</text>
</g>
<!-- CourseSelectionComponent&#45;&gt;AppModule -->
<g id="edge5" class="edge">
<title>CourseSelectionComponent&#45;&gt;AppModule</title>
<path fill="none" stroke="#000000" d="M1955,-122.302C1955,-140.2699 1955,-165 1955,-165 1955,-165 1395.0652,-165 1395.0652,-165"/>
<polygon fill="#000000" stroke="#000000" points="1395.0653,-161.5001 1385.0652,-165 1395.0652,-168.5001 1395.0653,-161.5001"/>
</g>
<!-- CourseSidebarComponent -->
<g id="node6" class="node">
<title>CourseSidebarComponent</title>
<polygon fill="#ffffb3" stroke="#000000" points="1850.752,-122 1687.248,-122 1687.248,-86 1850.752,-86 1850.752,-122"/>
<text text-anchor="middle" x="1769" y="-99.8" font-family="Times,serif" font-size="14.00" fill="#000000">CourseSidebarComponent</text>
</g>
<!-- CourseSidebarComponent&#45;&gt;AppModule -->
<g id="edge6" class="edge">
<title>CourseSidebarComponent&#45;&gt;AppModule</title>
<path fill="none" stroke="#000000" d="M1769,-122.027C1769,-138.3976 1769,-160 1769,-160 1769,-160 1395.0124,-160 1395.0124,-160"/>
<polygon fill="#000000" stroke="#000000" points="1395.0124,-156.5001 1385.0124,-160 1395.0123,-163.5001 1395.0124,-156.5001"/>
</g>
<!-- IssueCardComponent -->
<g id="node7" class="node">
<title>IssueCardComponent</title>
<polygon fill="#ffffb3" stroke="#000000" points="1668.8089,-122 1531.1911,-122 1531.1911,-86 1668.8089,-86 1668.8089,-122"/>
<text text-anchor="middle" x="1600" y="-99.8" font-family="Times,serif" font-size="14.00" fill="#000000">IssueCardComponent</text>
</g>
<!-- IssueCardComponent&#45;&gt;AppModule -->
<g id="edge7" class="edge">
<title>IssueCardComponent&#45;&gt;AppModule</title>
<path fill="none" stroke="#000000" d="M1600,-122.1871C1600,-137.1824 1600,-156 1600,-156 1600,-156 1394.8635,-156 1394.8635,-156"/>
<polygon fill="#000000" stroke="#000000" points="1394.8635,-152.5001 1384.8635,-156 1394.8634,-159.5001 1394.8635,-152.5001"/>
</g>
<!-- IssueContainerComponent -->
<g id="node8" class="node">
<title>IssueContainerComponent</title>
<polygon fill="#ffffb3" stroke="#000000" points="1513.8047,-122 1348.1953,-122 1348.1953,-86 1513.8047,-86 1513.8047,-122"/>
<text text-anchor="middle" x="1431" y="-99.8" font-family="Times,serif" font-size="14.00" fill="#000000">IssueContainerComponent</text>
</g>
<!-- IssueContainerComponent&#45;&gt;AppModule -->
<g id="edge8" class="edge">
<title>IssueContainerComponent&#45;&gt;AppModule</title>
<path fill="none" stroke="#000000" d="M1366.588,-122.1061C1366.588,-122.1061 1366.588,-140.991 1366.588,-140.991"/>
<polygon fill="#000000" stroke="#000000" points="1363.0881,-140.9909 1366.588,-150.991 1370.0881,-140.991 1363.0881,-140.9909"/>
</g>
<!-- IssueDetailsComponent -->
<g id="node9" class="node">
<title>IssueDetailsComponent</title>
<polygon fill="#ffffb3" stroke="#000000" points="1329.7492,-122 1180.2508,-122 1180.2508,-86 1329.7492,-86 1329.7492,-122"/>
<text text-anchor="middle" x="1255" y="-99.8" font-family="Times,serif" font-size="14.00" fill="#000000">IssueDetailsComponent</text>
</g>
<!-- IssueDetailsComponent&#45;&gt;AppModule -->
<g id="edge9" class="edge">
<title>IssueDetailsComponent&#45;&gt;AppModule</title>
<path fill="none" stroke="#000000" d="M1315.5232,-122.1061C1315.5232,-122.1061 1315.5232,-140.991 1315.5232,-140.991"/>
<polygon fill="#000000" stroke="#000000" points="1312.0232,-140.9909 1315.5232,-150.991 1319.0232,-140.991 1312.0232,-140.9909"/>
</g>
<!-- IssueListComponent -->
<g id="node10" class="node">
<title>IssueListComponent</title>
<polygon fill="#ffffb3" stroke="#000000" points="1161.8753,-122 1030.1247,-122 1030.1247,-86 1161.8753,-86 1161.8753,-122"/>
<text text-anchor="middle" x="1096" y="-99.8" font-family="Times,serif" font-size="14.00" fill="#000000">IssueListComponent</text>
</g>
<!-- IssueListComponent&#45;&gt;AppModule -->
<g id="edge10" class="edge">
<title>IssueListComponent&#45;&gt;AppModule</title>
<path fill="none" stroke="#000000" d="M1096,-122.1871C1096,-137.1824 1096,-156 1096,-156 1096,-156 1291.0998,-156 1291.0998,-156"/>
<polygon fill="#000000" stroke="#000000" points="1291.0999,-159.5001 1301.0998,-156 1291.0998,-152.5001 1291.0999,-159.5001"/>
</g>
<!-- IssueNavComponent -->
<g id="node11" class="node">
<title>IssueNavComponent</title>
<polygon fill="#ffffb3" stroke="#000000" points="1011.9187,-122 878.0813,-122 878.0813,-86 1011.9187,-86 1011.9187,-122"/>
<text text-anchor="middle" x="945" y="-99.8" font-family="Times,serif" font-size="14.00" fill="#000000">IssueNavComponent</text>
</g>
<!-- IssueNavComponent&#45;&gt;AppModule -->
<g id="edge11" class="edge">
<title>IssueNavComponent&#45;&gt;AppModule</title>
<path fill="none" stroke="#000000" d="M945,-122.027C945,-138.3976 945,-160 945,-160 945,-160 1291.1593,-160 1291.1593,-160"/>
<polygon fill="#000000" stroke="#000000" points="1291.1593,-163.5001 1301.1593,-160 1291.1592,-156.5001 1291.1593,-163.5001"/>
</g>
<!-- OptionsViewComponent -->
<g id="node12" class="node">
<title>OptionsViewComponent</title>
<polygon fill="#ffffb3" stroke="#000000" points="859.9832,-122 704.0168,-122 704.0168,-86 859.9832,-86 859.9832,-122"/>
<text text-anchor="middle" x="782" y="-99.8" font-family="Times,serif" font-size="14.00" fill="#000000">OptionsViewComponent</text>
</g>
<!-- OptionsViewComponent&#45;&gt;AppModule -->
<g id="edge12" class="edge">
<title>OptionsViewComponent&#45;&gt;AppModule</title>
<path fill="none" stroke="#000000" d="M782,-122.302C782,-140.2699 782,-165 782,-165 782,-165 1291.2921,-165 1291.2921,-165"/>
<polygon fill="#000000" stroke="#000000" points="1291.2922,-168.5001 1301.2921,-165 1291.2921,-161.5001 1291.2922,-168.5001"/>
</g>
<!-- StatBadgeComponent -->
<g id="node13" class="node">
<title>StatBadgeComponent</title>
<polygon fill="#ffffb3" stroke="#000000" points="686.3767,-122 547.6233,-122 547.6233,-86 686.3767,-86 686.3767,-122"/>
<text text-anchor="middle" x="617" y="-99.8" font-family="Times,serif" font-size="14.00" fill="#000000">StatBadgeComponent</text>
</g>
<!-- StatBadgeComponent&#45;&gt;AppModule -->
<g id="edge13" class="edge">
<title>StatBadgeComponent&#45;&gt;AppModule</title>
<path fill="none" stroke="#000000" d="M617,-122.1061C617,-141.3391 617,-169 617,-169 617,-169 1291.0947,-169 1291.0947,-169"/>
<polygon fill="#000000" stroke="#000000" points="1291.0947,-172.5001 1301.0947,-169 1291.0947,-165.5001 1291.0947,-172.5001"/>
</g>
<!-- ToolSelectionComponent -->
<g id="node14" class="node">
<title>ToolSelectionComponent</title>
<polygon fill="#ffffb3" stroke="#000000" points="529.8738,-122 370.1262,-122 370.1262,-86 529.8738,-86 529.8738,-122"/>
<text text-anchor="middle" x="450" y="-99.8" font-family="Times,serif" font-size="14.00" fill="#000000">ToolSelectionComponent</text>
</g>
<!-- ToolSelectionComponent&#45;&gt;AppModule -->
<g id="edge14" class="edge">
<title>ToolSelectionComponent&#45;&gt;AppModule</title>
<path fill="none" stroke="#000000" d="M450,-122.0267C450,-142.7672 450,-174 450,-174 450,-174 1291.1265,-174 1291.1265,-174"/>
<polygon fill="#000000" stroke="#000000" points="1291.1265,-177.5001 1301.1265,-174 1291.1265,-170.5001 1291.1265,-177.5001"/>
</g>
<!-- ToolViewComponent -->
<g id="node15" class="node">
<title>ToolViewComponent</title>
<polygon fill="#ffffb3" stroke="#000000" points="352.094,-122 213.906,-122 213.906,-86 352.094,-86 352.094,-122"/>
<text text-anchor="middle" x="283" y="-99.8" font-family="Times,serif" font-size="14.00" fill="#000000">ToolViewComponent</text>
</g>
<!-- ToolViewComponent&#45;&gt;AppModule -->
<g id="edge15" class="edge">
<title>ToolViewComponent&#45;&gt;AppModule</title>
<path fill="none" stroke="#000000" d="M283,-122.2921C283,-144.2057 283,-178 283,-178 283,-178 1291.1203,-178 1291.1203,-178"/>
<polygon fill="#000000" stroke="#000000" points="1291.1203,-181.5001 1301.1203,-178 1291.1202,-174.5001 1291.1203,-181.5001"/>
</g>
<!-- AppComponent  -->
<g id="node17" class="node">
<title>AppComponent </title>
<polygon fill="#80b1d3" stroke="#000000" points="1397.439,-252 1288.561,-252 1288.561,-216 1397.439,-216 1397.439,-252"/>
<text text-anchor="middle" x="1343" y="-229.8" font-family="Times,serif" font-size="14.00" fill="#000000">AppComponent </text>
</g>
<!-- AppModule&#45;&gt;AppComponent  -->
<g id="edge16" class="edge">
<title>AppModule&#45;&gt;AppComponent </title>
<path fill="none" stroke="#000000" stroke-dasharray="1,5" d="M1343,-187.1061C1343,-187.1061 1343,-205.991 1343,-205.991"/>
<polygon fill="#000000" stroke="#000000" points="1339.5001,-205.9909 1343,-215.991 1346.5001,-205.991 1339.5001,-205.9909"/>
</g>
<!-- AuthGuardService -->
<g id="node18" class="node">
<title>AuthGuardService</title>
<ellipse fill="#fdb462" stroke="#000000" cx="107" cy="-104" rx="83.3674" ry="18"/>
<text text-anchor="middle" x="107" y="-99.8" font-family="Times,serif" font-size="14.00" fill="#000000">AuthGuardService</text>
</g>
<!-- AuthGuardService&#45;&gt;AppModule -->
<g id="edge17" class="edge">
<title>AuthGuardService&#45;&gt;AppModule</title>
<path fill="none" stroke="#000000" d="M107,-122.3228C107,-145.6602 107,-183 107,-183 107,-183 1291.1678,-183 1291.1678,-183"/>
<polygon fill="#000000" stroke="#000000" points="1291.1679,-186.5001 1301.1678,-183 1291.1678,-179.5001 1291.1679,-186.5001"/>
</g>
</g>
</svg>
