<?xml version="1.0" encoding="UTF-8" standalone="no"?>
<!DOCTYPE svg PUBLIC "-//W3C//DTD SVG 1.1//EN"
 "http://www.w3.org/Graphics/SVG/1.1/DTD/svg11.dtd">
<!-- Generated by graphviz version 2.40.1 (20161225.0304)
 -->
<!-- Title: dependencies Pages: 1 -->
<svg width="2862pt" height="284pt"
 viewBox="0.00 0.00 2862.00 284.00" xmlns="http://www.w3.org/2000/svg" xmlns:xlink="http://www.w3.org/1999/xlink">
<g id="graph0" class="graph" transform="scale(1 1) rotate(0) translate(4 280)">
<title>dependencies</title>
<polygon fill="#ffffff" stroke="transparent" points="-4,4 -4,-280 2858,-280 2858,4 -4,4"/>
<text text-anchor="start" x="1406.0091" y="-42.4" font-family="sans-serif" font-weight="bold" font-size="14.00" fill="#000000">Legend</text>
<polygon fill="#ffffb3" stroke="transparent" points="1193,-10 1193,-30 1213,-30 1213,-10 1193,-10"/>
<text text-anchor="start" x="1216.629" y="-15.4" font-family="sans-serif" font-size="14.00" fill="#000000"> &#160;Declarations</text>
<polygon fill="#8dd3c7" stroke="transparent" points="1306,-10 1306,-30 1326,-30 1326,-10 1306,-10"/>
<text text-anchor="start" x="1329.7251" y="-15.4" font-family="sans-serif" font-size="14.00" fill="#000000"> &#160;Module</text>
<polygon fill="#80b1d3" stroke="transparent" points="1392,-10 1392,-30 1412,-30 1412,-10 1392,-10"/>
<text text-anchor="start" x="1415.7812" y="-15.4" font-family="sans-serif" font-size="14.00" fill="#000000"> &#160;Bootstrap</text>
<polygon fill="#fdb462" stroke="transparent" points="1489,-10 1489,-30 1509,-30 1509,-10 1489,-10"/>
<text text-anchor="start" x="1512.6732" y="-15.4" font-family="sans-serif" font-size="14.00" fill="#000000"> &#160;Providers</text>
<polygon fill="#fb8072" stroke="transparent" points="1585,-10 1585,-30 1605,-30 1605,-10 1585,-10"/>
<text text-anchor="start" x="1608.7258" y="-15.4" font-family="sans-serif" font-size="14.00" fill="#000000"> &#160;Exports</text>
<g id="clust1" class="cluster">
<title>cluster_AppModule</title>
<polygon fill="none" stroke="#000000" stroke-dasharray="1,5" points="8,-70 8,-268 2846,-268 2846,-70 8,-70"/>
</g>
<g id="clust2" class="cluster">
<title>cluster_AppModule_declarations</title>
<polygon fill="none" stroke="#000000" points="206,-78 206,-130 2838,-130 2838,-78 206,-78"/>
</g>
<g id="clust21" class="cluster">
<title>cluster_AppModule_bootstrap</title>
<polygon fill="none" stroke="#000000" points="1369,-208 1369,-260 1493,-260 1493,-208 1369,-208"/>
</g>
<g id="clust22" class="cluster">
<title>cluster_AppModule_providers</title>
<polygon fill="none" stroke="#000000" points="16,-78 16,-130 198,-130 198,-78 16,-78"/>
</g>
<!-- AppComponent -->
<g id="node1" class="node">
<title>AppComponent</title>
<polygon fill="#ffffb3" stroke="#000000" points="2829.9399,-122 2724.0601,-122 2724.0601,-86 2829.9399,-86 2829.9399,-122"/>
<text text-anchor="middle" x="2777" y="-99.8" font-family="Times,serif" font-size="14.00" fill="#000000">AppComponent</text>
</g>
<!-- AppModule -->
<g id="node17" class="node">
<title>AppModule</title>
<polygon fill="#8dd3c7" stroke="#000000" points="1472.6571,-187 1469.6571,-191 1448.6571,-191 1445.6571,-187 1389.3429,-187 1389.3429,-151 1472.6571,-151 1472.6571,-187"/>
<text text-anchor="middle" x="1431" y="-164.8" font-family="Times,serif" font-size="14.00" fill="#000000">AppModule</text>
</g>
<!-- AppComponent&#45;&gt;AppModule -->
<g id="edge1" class="edge">
<title>AppComponent&#45;&gt;AppModule</title>
<path fill="none" stroke="#000000" d="M2777,-122.3228C2777,-145.6602 2777,-183 2777,-183 2777,-183 1482.7591,-183 1482.7591,-183"/>
<polygon fill="#000000" stroke="#000000" points="1482.7591,-179.5001 1472.7591,-183 1482.759,-186.5001 1482.7591,-179.5001"/>
</g>
<!-- BreadcrumbsComponent -->
<g id="node2" class="node">
<title>BreadcrumbsComponent</title>
<polygon fill="#ffffb3" stroke="#000000" points="2705.9692,-122 2550.0308,-122 2550.0308,-86 2705.9692,-86 2705.9692,-122"/>
<text text-anchor="middle" x="2628" y="-99.8" font-family="Times,serif" font-size="14.00" fill="#000000">BreadcrumbsComponent</text>
</g>
<!-- BreadcrumbsComponent&#45;&gt;AppModule -->
<g id="edge2" class="edge">
<title>BreadcrumbsComponent&#45;&gt;AppModule</title>
<path fill="none" stroke="#000000" d="M2628,-122.1554C2628,-144.3519 2628,-179 2628,-179 2628,-179 1482.9,-179 1482.9,-179"/>
<polygon fill="#000000" stroke="#000000" points="1482.9,-175.5001 1472.9,-179 1482.9,-182.5001 1482.9,-175.5001"/>
</g>
<!-- CategoriesComponent -->
<g id="node3" class="node">
<title>CategoriesComponent</title>
<polygon fill="#ffffb3" stroke="#000000" points="2531.6993,-122 2390.3007,-122 2390.3007,-86 2531.6993,-86 2531.6993,-122"/>
<text text-anchor="middle" x="2461" y="-99.8" font-family="Times,serif" font-size="14.00" fill="#000000">CategoriesComponent</text>
</g>
<!-- CategoriesComponent&#45;&gt;AppModule -->
<g id="edge3" class="edge">
<title>CategoriesComponent&#45;&gt;AppModule</title>
<path fill="none" stroke="#000000" d="M2461,-122.2843C2461,-143.3211 2461,-175 2461,-175 2461,-175 1482.9746,-175 1482.9746,-175"/>
<polygon fill="#000000" stroke="#000000" points="1482.9747,-171.5001 1472.9746,-175 1482.9746,-178.5001 1482.9747,-171.5001"/>
</g>
<!-- CodeEditorComponent -->
<g id="node4" class="node">
<title>CodeEditorComponent</title>
<polygon fill="#ffffb3" stroke="#000000" points="2371.8781,-122 2226.1219,-122 2226.1219,-86 2371.8781,-86 2371.8781,-122"/>
<text text-anchor="middle" x="2299" y="-99.8" font-family="Times,serif" font-size="14.00" fill="#000000">CodeEditorComponent</text>
</g>
<!-- CodeEditorComponent&#45;&gt;AppModule -->
<g id="edge4" class="edge">
<title>CodeEditorComponent&#45;&gt;AppModule</title>
<path fill="none" stroke="#000000" d="M2299,-122.308C2299,-142.1455 2299,-171 2299,-171 2299,-171 1482.8654,-171 1482.8654,-171"/>
<polygon fill="#000000" stroke="#000000" points="1482.8655,-167.5001 1472.8654,-171 1482.8654,-174.5001 1482.8655,-167.5001"/>
</g>
<!-- CourseChipComponent -->
<g id="node5" class="node">
<title>CourseChipComponent</title>
<polygon fill="#ffffb3" stroke="#000000" points="2208.2162,-122 2059.7838,-122 2059.7838,-86 2208.2162,-86 2208.2162,-122"/>
<text text-anchor="middle" x="2134" y="-99.8" font-family="Times,serif" font-size="14.00" fill="#000000">CourseChipComponent</text>
</g>
<!-- CourseChipComponent&#45;&gt;AppModule -->
<g id="edge5" class="edge">
<title>CourseChipComponent&#45;&gt;AppModule</title>
<path fill="none" stroke="#000000" d="M2134,-122.2222C2134,-140.8285 2134,-167 2134,-167 2134,-167 1482.8706,-167 1482.8706,-167"/>
<polygon fill="#000000" stroke="#000000" points="1482.8706,-163.5001 1472.8706,-167 1482.8705,-170.5001 1482.8706,-163.5001"/>
</g>
<!-- CourseSelectionComponent -->
<g id="node6" class="node">
<title>CourseSelectionComponent</title>
<polygon fill="#ffffb3" stroke="#000000" points="2041.587,-122 1868.413,-122 1868.413,-86 2041.587,-86 2041.587,-122"/>
<text text-anchor="middle" x="1955" y="-99.8" font-family="Times,serif" font-size="14.00" fill="#000000">CourseSelectionComponent</text>
</g>
<!-- CourseSelectionComponent&#45;&gt;AppModule -->
<g id="edge6" class="edge">
<title>CourseSelectionComponent&#45;&gt;AppModule</title>
<path fill="none" stroke="#000000" d="M1955,-122.0225C1955,-139.3734 1955,-163 1955,-163 1955,-163 1482.9953,-163 1482.9953,-163"/>
<polygon fill="#000000" stroke="#000000" points="1482.9954,-159.5001 1472.9953,-163 1482.9953,-166.5001 1482.9954,-159.5001"/>
</g>
<!-- CourseSidebarComponent -->
<g id="node7" class="node">
<title>CourseSidebarComponent</title>
<polygon fill="#ffffb3" stroke="#000000" points="1850.752,-122 1687.248,-122 1687.248,-86 1850.752,-86 1850.752,-122"/>
<text text-anchor="middle" x="1769" y="-99.8" font-family="Times,serif" font-size="14.00" fill="#000000">CourseSidebarComponent</text>
</g>
<!-- CourseSidebarComponent&#45;&gt;AppModule -->
<g id="edge7" class="edge">
<title>CourseSidebarComponent&#45;&gt;AppModule</title>
<path fill="none" stroke="#000000" d="M1769,-122.0091C1769,-138.0494 1769,-159 1769,-159 1769,-159 1482.7844,-159 1482.7844,-159"/>
<polygon fill="#000000" stroke="#000000" points="1482.7845,-155.5001 1472.7844,-159 1482.7844,-162.5001 1482.7845,-155.5001"/>
</g>
<!-- IssueCardComponent -->
<g id="node8" class="node">
<title>IssueCardComponent</title>
<polygon fill="#ffffb3" stroke="#000000" points="1668.8089,-122 1531.1911,-122 1531.1911,-86 1668.8089,-86 1668.8089,-122"/>
<text text-anchor="middle" x="1600" y="-99.8" font-family="Times,serif" font-size="14.00" fill="#000000">IssueCardComponent</text>
</g>
<!-- IssueCardComponent&#45;&gt;AppModule -->
<g id="edge8" class="edge">
<title>IssueCardComponent&#45;&gt;AppModule</title>
<path fill="none" stroke="#000000" d="M1600,-122.1243C1600,-136.7832 1600,-155 1600,-155 1600,-155 1482.7753,-155 1482.7753,-155"/>
<polygon fill="#000000" stroke="#000000" points="1482.7753,-151.5001 1472.7753,-155 1482.7753,-158.5001 1482.7753,-151.5001"/>
</g>
<!-- IssueContainerComponent -->
<g id="node9" class="node">
<title>IssueContainerComponent</title>
<polygon fill="#ffffb3" stroke="#000000" points="1513.8047,-122 1348.1953,-122 1348.1953,-86 1513.8047,-86 1513.8047,-122"/>
<text text-anchor="middle" x="1431" y="-99.8" font-family="Times,serif" font-size="14.00" fill="#000000">IssueContainerComponent</text>
</g>
<!-- IssueContainerComponent&#45;&gt;AppModule -->
<g id="edge9" class="edge">
<title>IssueContainerComponent&#45;&gt;AppModule</title>
<path fill="none" stroke="#000000" d="M1431,-122.1061C1431,-122.1061 1431,-140.991 1431,-140.991"/>
<polygon fill="#000000" stroke="#000000" points="1427.5001,-140.9909 1431,-150.991 1434.5001,-140.991 1427.5001,-140.9909"/>
</g>
<!-- IssueDetailsComponent -->
<g id="node10" class="node">
<title>IssueDetailsComponent</title>
<polygon fill="#ffffb3" stroke="#000000" points="1329.7492,-122 1180.2508,-122 1180.2508,-86 1329.7492,-86 1329.7492,-122"/>
<text text-anchor="middle" x="1255" y="-99.8" font-family="Times,serif" font-size="14.00" fill="#000000">IssueDetailsComponent</text>
</g>
<!-- IssueDetailsComponent&#45;&gt;AppModule -->
<g id="edge10" class="edge">
<title>IssueDetailsComponent&#45;&gt;AppModule</title>
<path fill="none" stroke="#000000" d="M1255,-122.1243C1255,-136.7832 1255,-155 1255,-155 1255,-155 1379.2905,-155 1379.2905,-155"/>
<polygon fill="#000000" stroke="#000000" points="1379.2905,-158.5001 1389.2905,-155 1379.2904,-151.5001 1379.2905,-158.5001"/>
</g>
<!-- IssueListComponent -->
<g id="node11" class="node">
<title>IssueListComponent</title>
<polygon fill="#ffffb3" stroke="#000000" points="1161.8753,-122 1030.1247,-122 1030.1247,-86 1161.8753,-86 1161.8753,-122"/>
<text text-anchor="middle" x="1096" y="-99.8" font-family="Times,serif" font-size="14.00" fill="#000000">IssueListComponent</text>
</g>
<!-- IssueListComponent&#45;&gt;AppModule -->
<g id="edge11" class="edge">
<title>IssueListComponent&#45;&gt;AppModule</title>
<path fill="none" stroke="#000000" d="M1096,-122.0091C1096,-138.0494 1096,-159 1096,-159 1096,-159 1379.2494,-159 1379.2494,-159"/>
<polygon fill="#000000" stroke="#000000" points="1379.2494,-162.5001 1389.2494,-159 1379.2493,-155.5001 1379.2494,-162.5001"/>
</g>
<!-- IssueNavComponent -->
<g id="node12" class="node">
<title>IssueNavComponent</title>
<polygon fill="#ffffb3" stroke="#000000" points="1011.9187,-122 878.0813,-122 878.0813,-86 1011.9187,-86 1011.9187,-122"/>
<text text-anchor="middle" x="945" y="-99.8" font-family="Times,serif" font-size="14.00" fill="#000000">IssueNavComponent</text>
</g>
<!-- IssueNavComponent&#45;&gt;AppModule -->
<g id="edge12" class="edge">
<title>IssueNavComponent&#45;&gt;AppModule</title>
<path fill="none" stroke="#000000" d="M945,-122.0225C945,-139.3734 945,-163 945,-163 945,-163 1379.1433,-163 1379.1433,-163"/>
<polygon fill="#000000" stroke="#000000" points="1379.1433,-166.5001 1389.1433,-163 1379.1432,-159.5001 1379.1433,-166.5001"/>
</g>
<!-- OptionsViewComponent -->
<g id="node13" class="node">
<title>OptionsViewComponent</title>
<polygon fill="#ffffb3" stroke="#000000" points="859.9832,-122 704.0168,-122 704.0168,-86 859.9832,-86 859.9832,-122"/>
<text text-anchor="middle" x="782" y="-99.8" font-family="Times,serif" font-size="14.00" fill="#000000">OptionsViewComponent</text>
</g>
<!-- OptionsViewComponent&#45;&gt;AppModule -->
<g id="edge13" class="edge">
<title>OptionsViewComponent&#45;&gt;AppModule</title>
<path fill="none" stroke="#000000" d="M782,-122.2222C782,-140.8285 782,-167 782,-167 782,-167 1378.9174,-167 1378.9174,-167"/>
<polygon fill="#000000" stroke="#000000" points="1378.9174,-170.5001 1388.9174,-167 1378.9173,-163.5001 1378.9174,-170.5001"/>
</g>
<!-- StatBadgeComponent -->
<g id="node14" class="node">
<title>StatBadgeComponent</title>
<polygon fill="#ffffb3" stroke="#000000" points="686.3767,-122 547.6233,-122 547.6233,-86 686.3767,-86 686.3767,-122"/>
<text text-anchor="middle" x="617" y="-99.8" font-family="Times,serif" font-size="14.00" fill="#000000">StatBadgeComponent</text>
</g>
<!-- StatBadgeComponent&#45;&gt;AppModule -->
<g id="edge14" class="edge">
<title>StatBadgeComponent&#45;&gt;AppModule</title>
<path fill="none" stroke="#000000" d="M617,-122.308C617,-142.1455 617,-171 617,-171 617,-171 1379.2326,-171 1379.2326,-171"/>
<polygon fill="#000000" stroke="#000000" points="1379.2327,-174.5001 1389.2326,-171 1379.2326,-167.5001 1379.2327,-174.5001"/>
</g>
<!-- ToolSelectionComponent -->
<g id="node15" class="node">
<title>ToolSelectionComponent</title>
<polygon fill="#ffffb3" stroke="#000000" points="529.8738,-122 370.1262,-122 370.1262,-86 529.8738,-86 529.8738,-122"/>
<text text-anchor="middle" x="450" y="-99.8" font-family="Times,serif" font-size="14.00" fill="#000000">ToolSelectionComponent</text>
</g>
<!-- ToolSelectionComponent&#45;&gt;AppModule -->
<g id="edge15" class="edge">
<title>ToolSelectionComponent&#45;&gt;AppModule</title>
<path fill="none" stroke="#000000" d="M450,-122.2843C450,-143.3211 450,-175 450,-175 450,-175 1379.1615,-175 1379.1615,-175"/>
<polygon fill="#000000" stroke="#000000" points="1379.1615,-178.5001 1389.1615,-175 1379.1614,-171.5001 1379.1615,-178.5001"/>
</g>
<!-- ToolViewComponent -->
<g id="node16" class="node">
<title>ToolViewComponent</title>
<polygon fill="#ffffb3" stroke="#000000" points="352.094,-122 213.906,-122 213.906,-86 352.094,-86 352.094,-122"/>
<text text-anchor="middle" x="283" y="-99.8" font-family="Times,serif" font-size="14.00" fill="#000000">ToolViewComponent</text>
</g>
<!-- ToolViewComponent&#45;&gt;AppModule -->
<g id="edge16" class="edge">
<title>ToolViewComponent&#45;&gt;AppModule</title>
<path fill="none" stroke="#000000" d="M283,-122.1554C283,-144.3519 283,-179 283,-179 283,-179 1379.1229,-179 1379.1229,-179"/>
<polygon fill="#000000" stroke="#000000" points="1379.1229,-182.5001 1389.1229,-179 1379.1228,-175.5001 1379.1229,-182.5001"/>
</g>
<!-- AppComponent  -->
<g id="node18" class="node">
<title>AppComponent </title>
<polygon fill="#80b1d3" stroke="#000000" points="1485.439,-252 1376.561,-252 1376.561,-216 1485.439,-216 1485.439,-252"/>
<text text-anchor="middle" x="1431" y="-229.8" font-family="Times,serif" font-size="14.00" fill="#000000">AppComponent </text>
</g>
<!-- AppModule&#45;&gt;AppComponent  -->
<g id="edge17" class="edge">
<title>AppModule&#45;&gt;AppComponent </title>
<path fill="none" stroke="#000000" stroke-dasharray="1,5" d="M1431,-187.1061C1431,-187.1061 1431,-205.991 1431,-205.991"/>
<polygon fill="#000000" stroke="#000000" points="1427.5001,-205.9909 1431,-215.991 1434.5001,-205.991 1427.5001,-205.9909"/>
</g>
<!-- AuthGuardService -->
<g id="node19" class="node">
<title>AuthGuardService</title>
<ellipse fill="#fdb462" stroke="#000000" cx="107" cy="-104" rx="83.3674" ry="18"/>
<text text-anchor="middle" x="107" y="-99.8" font-family="Times,serif" font-size="14.00" fill="#000000">AuthGuardService</text>
</g>
<!-- AuthGuardService&#45;&gt;AppModule -->
<g id="edge18" class="edge">
<title>AuthGuardService&#45;&gt;AppModule</title>
<path fill="none" stroke="#000000" d="M107,-122.3228C107,-145.6602 107,-183 107,-183 107,-183 1379.1886,-183 1379.1886,-183"/>
<polygon fill="#000000" stroke="#000000" points="1379.1886,-186.5001 1389.1886,-183 1379.1885,-179.5001 1379.1886,-186.5001"/>
</g>
</g>
</svg>
