<?xml version="1.0" encoding="UTF-8" standalone="no"?>
<!DOCTYPE svg PUBLIC "-//W3C//DTD SVG 1.1//EN"
 "http://www.w3.org/Graphics/SVG/1.1/DTD/svg11.dtd">
<!-- Generated by graphviz version 2.40.1 (20161225.0304)
 -->
<!-- Title: dependencies Pages: 1 -->
<svg width="749pt" height="284pt"
 viewBox="0.00 0.00 749.00 284.00" xmlns="http://www.w3.org/2000/svg" xmlns:xlink="http://www.w3.org/1999/xlink">
<g id="graph0" class="graph" transform="scale(1 1) rotate(0) translate(4 280)">
<title>dependencies</title>
<polygon fill="#ffffff" stroke="transparent" points="-4,4 -4,-280 745,-280 745,4 -4,4"/>
<text text-anchor="start" x="349.5091" y="-42.4" font-family="sans-serif" font-weight="bold" font-size="14.00" fill="#000000">Legend</text>
<polygon fill="#ffffb3" stroke="transparent" points="136.5,-10 136.5,-30 156.5,-30 156.5,-10 136.5,-10"/>
<text text-anchor="start" x="160.129" y="-15.4" font-family="sans-serif" font-size="14.00" fill="#000000"> &#160;Declarations</text>
<polygon fill="#8dd3c7" stroke="transparent" points="249.5,-10 249.5,-30 269.5,-30 269.5,-10 249.5,-10"/>
<text text-anchor="start" x="273.2251" y="-15.4" font-family="sans-serif" font-size="14.00" fill="#000000"> &#160;Module</text>
<polygon fill="#80b1d3" stroke="transparent" points="335.5,-10 335.5,-30 355.5,-30 355.5,-10 335.5,-10"/>
<text text-anchor="start" x="359.2812" y="-15.4" font-family="sans-serif" font-size="14.00" fill="#000000"> &#160;Bootstrap</text>
<polygon fill="#fdb462" stroke="transparent" points="432.5,-10 432.5,-30 452.5,-30 452.5,-10 432.5,-10"/>
<text text-anchor="start" x="456.1732" y="-15.4" font-family="sans-serif" font-size="14.00" fill="#000000"> &#160;Providers</text>
<polygon fill="#fb8072" stroke="transparent" points="528.5,-10 528.5,-30 548.5,-30 548.5,-10 528.5,-10"/>
<text text-anchor="start" x="552.2258" y="-15.4" font-family="sans-serif" font-size="14.00" fill="#000000"> &#160;Exports</text>
<g id="clust1" class="cluster">
<title>cluster_AppModule</title>
<polygon fill="none" stroke="#000000" stroke-dasharray="1,5" points="8,-70 8,-268 733,-268 733,-70 8,-70"/>
</g>
<g id="clust2" class="cluster">
<title>cluster_AppModule_declarations</title>
<polygon fill="none" stroke="#000000" points="603,-78 603,-130 725,-130 725,-78 603,-78"/>
</g>
<g id="clust4" class="cluster">
<title>cluster_AppModule_imports</title>
<polygon fill="none" stroke="#000000" points="206,-78 206,-130 595,-130 595,-78 206,-78"/>
</g>
<g id="clust6" class="cluster">
<title>cluster_AppModule_bootstrap</title>
<polygon fill="none" stroke="#000000" points="335,-208 335,-260 459,-260 459,-208 335,-208"/>
</g>
<g id="clust7" class="cluster">
<title>cluster_AppModule_providers</title>
<polygon fill="none" stroke="#000000" points="16,-78 16,-130 198,-130 198,-78 16,-78"/>
</g>
<!-- AppComponent -->
<g id="node1" class="node">
<title>AppComponent</title>
<polygon fill="#ffffb3" stroke="#000000" points="716.9399,-122 611.0601,-122 611.0601,-86 716.9399,-86 716.9399,-122"/>
<text text-anchor="middle" x="664" y="-99.8" font-family="Times,serif" font-size="14.00" fill="#000000">AppComponent</text>
</g>
<!-- AppModule -->
<g id="node2" class="node">
<title>AppModule</title>
<polygon fill="#8dd3c7" stroke="#000000" points="438.6571,-187 435.6571,-191 414.6571,-191 411.6571,-187 355.3429,-187 355.3429,-151 438.6571,-151 438.6571,-187"/>
<text text-anchor="middle" x="397" y="-164.8" font-family="Times,serif" font-size="14.00" fill="#000000">AppModule</text>
</g>
<!-- AppComponent&#45;&gt;AppModule -->
<g id="edge1" class="edge">
<title>AppComponent&#45;&gt;AppModule</title>
<path fill="none" stroke="#000000" d="M664,-122.2843C664,-143.3211 664,-175 664,-175 664,-175 448.7188,-175 448.7188,-175"/>
<polygon fill="#000000" stroke="#000000" points="448.7188,-171.5001 438.7188,-175 448.7187,-178.5001 448.7188,-171.5001"/>
</g>
<!-- AppComponent  -->
<g id="node6" class="node">
<title>AppComponent </title>
<polygon fill="#80b1d3" stroke="#000000" points="451.439,-252 342.561,-252 342.561,-216 451.439,-216 451.439,-252"/>
<text text-anchor="middle" x="397" y="-229.8" font-family="Times,serif" font-size="14.00" fill="#000000">AppComponent </text>
</g>
<!-- AppModule&#45;&gt;AppComponent  -->
<g id="edge5" class="edge">
<title>AppModule&#45;&gt;AppComponent </title>
<path fill="none" stroke="#000000" stroke-dasharray="1,5" d="M397,-187.1061C397,-187.1061 397,-205.991 397,-205.991"/>
<polygon fill="#000000" stroke="#000000" points="393.5001,-205.9909 397,-215.991 400.5001,-205.991 393.5001,-205.9909"/>
</g>
<!-- HomePageModule -->
<g id="node3" class="node">
<title>HomePageModule</title>
<polygon fill="#8dd3c7" stroke="#000000" points="587.4734,-122 584.4734,-126 563.4734,-126 560.4734,-122 466.5266,-122 466.5266,-86 587.4734,-86 587.4734,-122"/>
<text text-anchor="middle" x="527" y="-99.8" font-family="Times,serif" font-size="14.00" fill="#000000">HomePageModule</text>
</g>
<!-- HomePageModule&#45;&gt;AppModule -->
<g id="edge2" class="edge">
<title>HomePageModule&#45;&gt;AppModule</title>
<path fill="none" stroke="#000000" d="M527,-122.0225C527,-139.3734 527,-163 527,-163 527,-163 448.8484,-163 448.8484,-163"/>
<polygon fill="#000000" stroke="#000000" points="448.8484,-159.5001 438.8484,-163 448.8484,-166.5001 448.8484,-159.5001"/>
</g>
<!-- SidebarModule -->
<g id="node4" class="node">
<title>SidebarModule</title>
<polygon fill="#8dd3c7" stroke="#000000" points="448.3133,-122 445.3133,-126 424.3133,-126 421.3133,-122 345.6867,-122 345.6867,-86 448.3133,-86 448.3133,-122"/>
<text text-anchor="middle" x="397" y="-99.8" font-family="Times,serif" font-size="14.00" fill="#000000">SidebarModule</text>
</g>
<!-- SidebarModule&#45;&gt;AppModule -->
<g id="edge3" class="edge">
<title>SidebarModule&#45;&gt;AppModule</title>
<path fill="none" stroke="#000000" d="M397,-122.1061C397,-122.1061 397,-140.991 397,-140.991"/>
<polygon fill="#000000" stroke="#000000" points="393.5001,-140.9909 397,-150.991 400.5001,-140.991 393.5001,-140.9909"/>
</g>
<!-- ToolPageModule -->
<g id="node5" class="node">
<title>ToolPageModule</title>
<polygon fill="#8dd3c7" stroke="#000000" points="327.705,-122 324.705,-126 303.705,-126 300.705,-122 214.295,-122 214.295,-86 327.705,-86 327.705,-122"/>
<text text-anchor="middle" x="271" y="-99.8" font-family="Times,serif" font-size="14.00" fill="#000000">ToolPageModule</text>
</g>
<!-- ToolPageModule&#45;&gt;AppModule -->
<g id="edge4" class="edge">
<title>ToolPageModule&#45;&gt;AppModule</title>
<path fill="none" stroke="#000000" d="M271,-122.0225C271,-139.3734 271,-163 271,-163 271,-163 345.0438,-163 345.0438,-163"/>
<polygon fill="#000000" stroke="#000000" points="345.0439,-166.5001 355.0438,-163 345.0438,-159.5001 345.0439,-166.5001"/>
</g>
<!-- AuthGuardService -->
<g id="node7" class="node">
<title>AuthGuardService</title>
<ellipse fill="#fdb462" stroke="#000000" cx="107" cy="-104" rx="83.3674" ry="18"/>
<text text-anchor="middle" x="107" y="-99.8" font-family="Times,serif" font-size="14.00" fill="#000000">AuthGuardService</text>
</g>
<!-- AuthGuardService&#45;&gt;AppModule -->
<g id="edge6" class="edge">
<title>AuthGuardService&#45;&gt;AppModule</title>
<path fill="none" stroke="#000000" d="M107,-122.2843C107,-143.3211 107,-175 107,-175 107,-175 345.1412,-175 345.1412,-175"/>
<polygon fill="#000000" stroke="#000000" points="345.1413,-178.5001 355.1412,-175 345.1412,-171.5001 345.1413,-178.5001"/>
</g>
</g>
</svg>
