<?xml version="1.0" encoding="UTF-8" standalone="no"?>
<!DOCTYPE svg PUBLIC "-//W3C//DTD SVG 1.1//EN"
 "http://www.w3.org/Graphics/SVG/1.1/DTD/svg11.dtd">
<!-- Generated by graphviz version 2.40.1 (20161225.0304)
 -->
<!-- Title: dependencies Pages: 1 -->
<svg width="628pt" height="284pt"
 viewBox="0.00 0.00 628.00 284.00" xmlns="http://www.w3.org/2000/svg" xmlns:xlink="http://www.w3.org/1999/xlink">
<g id="graph0" class="graph" transform="scale(1 1) rotate(0) translate(4 280)">
<title>dependencies</title>
<polygon fill="#ffffff" stroke="transparent" points="-4,4 -4,-280 624,-280 624,4 -4,4"/>
<text text-anchor="start" x="289.0091" y="-42.4" font-family="sans-serif" font-weight="bold" font-size="14.00" fill="#000000">Legend</text>
<polygon fill="#ffffb3" stroke="transparent" points="76,-10 76,-30 96,-30 96,-10 76,-10"/>
<text text-anchor="start" x="99.629" y="-15.4" font-family="sans-serif" font-size="14.00" fill="#000000"> &#160;Declarations</text>
<polygon fill="#8dd3c7" stroke="transparent" points="189,-10 189,-30 209,-30 209,-10 189,-10"/>
<text text-anchor="start" x="212.7251" y="-15.4" font-family="sans-serif" font-size="14.00" fill="#000000"> &#160;Module</text>
<polygon fill="#80b1d3" stroke="transparent" points="275,-10 275,-30 295,-30 295,-10 275,-10"/>
<text text-anchor="start" x="298.7812" y="-15.4" font-family="sans-serif" font-size="14.00" fill="#000000"> &#160;Bootstrap</text>
<polygon fill="#fdb462" stroke="transparent" points="372,-10 372,-30 392,-30 392,-10 372,-10"/>
<text text-anchor="start" x="395.6732" y="-15.4" font-family="sans-serif" font-size="14.00" fill="#000000"> &#160;Providers</text>
<polygon fill="#fb8072" stroke="transparent" points="468,-10 468,-30 488,-30 488,-10 468,-10"/>
<text text-anchor="start" x="491.7258" y="-15.4" font-family="sans-serif" font-size="14.00" fill="#000000"> &#160;Exports</text>
<g id="clust1" class="cluster">
<title>cluster_AppModule</title>
<polygon fill="none" stroke="#000000" stroke-dasharray="1,5" points="8,-70 8,-268 612,-268 612,-70 8,-70"/>
</g>
<g id="clust2" class="cluster">
<title>cluster_AppModule_declarations</title>
<polygon fill="none" stroke="#000000" points="482,-78 482,-130 604,-130 604,-78 482,-78"/>
</g>
<g id="clust4" class="cluster">
<title>cluster_AppModule_imports</title>
<polygon fill="none" stroke="#000000" points="206,-78 206,-130 474,-130 474,-78 206,-78"/>
</g>
<g id="clust6" class="cluster">
<title>cluster_AppModule_bootstrap</title>
<polygon fill="none" stroke="#000000" points="276,-208 276,-260 400,-260 400,-208 276,-208"/>
</g>
<g id="clust7" class="cluster">
<title>cluster_AppModule_providers</title>
<polygon fill="none" stroke="#000000" points="16,-78 16,-130 198,-130 198,-78 16,-78"/>
</g>
<!-- AppComponent -->
<g id="node1" class="node">
<title>AppComponent</title>
<polygon fill="#ffffb3" stroke="#000000" points="595.9399,-122 490.0601,-122 490.0601,-86 595.9399,-86 595.9399,-122"/>
<text text-anchor="middle" x="543" y="-99.8" font-family="Times,serif" font-size="14.00" fill="#000000">AppComponent</text>
</g>
<!-- AppModule -->
<g id="node2" class="node">
<title>AppModule</title>
<polygon fill="#8dd3c7" stroke="#000000" points="379.6571,-187 376.6571,-191 355.6571,-191 352.6571,-187 296.3429,-187 296.3429,-151 379.6571,-151 379.6571,-187"/>
<text text-anchor="middle" x="338" y="-164.8" font-family="Times,serif" font-size="14.00" fill="#000000">AppModule</text>
</g>
<!-- AppComponent&#45;&gt;AppModule -->
<g id="edge1" class="edge">
<title>AppComponent&#45;&gt;AppModule</title>
<path fill="none" stroke="#000000" d="M543,-122.1061C543,-141.3391 543,-169 543,-169 543,-169 389.9795,-169 389.9795,-169"/>
<polygon fill="#000000" stroke="#000000" points="389.9795,-165.5001 379.9795,-169 389.9795,-172.5001 389.9795,-165.5001"/>
</g>
<!-- AppComponent  -->
<g id="node5" class="node">
<title>AppComponent </title>
<polygon fill="#80b1d3" stroke="#000000" points="392.439,-252 283.561,-252 283.561,-216 392.439,-216 392.439,-252"/>
<text text-anchor="middle" x="338" y="-229.8" font-family="Times,serif" font-size="14.00" fill="#000000">AppComponent </text>
</g>
<!-- AppModule&#45;&gt;AppComponent  -->
<g id="edge4" class="edge">
<title>AppModule&#45;&gt;AppComponent </title>
<path fill="none" stroke="#000000" stroke-dasharray="1,5" d="M338,-187.1061C338,-187.1061 338,-205.991 338,-205.991"/>
<polygon fill="#000000" stroke="#000000" points="334.5001,-205.9909 338,-215.991 341.5001,-205.991 334.5001,-205.9909"/>
</g>
<!-- HomePageModule -->
<g id="node3" class="node">
<title>HomePageModule</title>
<polygon fill="#8dd3c7" stroke="#000000" points="466.4734,-122 463.4734,-126 442.4734,-126 439.4734,-122 345.5266,-122 345.5266,-86 466.4734,-86 466.4734,-122"/>
<text text-anchor="middle" x="406" y="-99.8" font-family="Times,serif" font-size="14.00" fill="#000000">HomePageModule</text>
</g>
<!-- HomePageModule&#45;&gt;AppModule -->
<g id="edge2" class="edge">
<title>HomePageModule&#45;&gt;AppModule</title>
<path fill="none" stroke="#000000" d="M362.6708,-122.1061C362.6708,-122.1061 362.6708,-140.991 362.6708,-140.991"/>
<polygon fill="#000000" stroke="#000000" points="359.1708,-140.9909 362.6708,-150.991 366.1708,-140.991 359.1708,-140.9909"/>
</g>
<!-- ToolPageModule -->
<g id="node4" class="node">
<title>ToolPageModule</title>
<polygon fill="#8dd3c7" stroke="#000000" points="327.705,-122 324.705,-126 303.705,-126 300.705,-122 214.295,-122 214.295,-86 327.705,-86 327.705,-122"/>
<text text-anchor="middle" x="271" y="-99.8" font-family="Times,serif" font-size="14.00" fill="#000000">ToolPageModule</text>
</g>
<!-- ToolPageModule&#45;&gt;AppModule -->
<g id="edge3" class="edge">
<title>ToolPageModule&#45;&gt;AppModule</title>
<path fill="none" stroke="#000000" d="M311.8871,-122.1061C311.8871,-122.1061 311.8871,-140.991 311.8871,-140.991"/>
<polygon fill="#000000" stroke="#000000" points="308.3872,-140.9909 311.8871,-150.991 315.3872,-140.991 308.3872,-140.9909"/>
</g>
<!-- AuthGuardService -->
<g id="node6" class="node">
<title>AuthGuardService</title>
<ellipse fill="#fdb462" stroke="#000000" cx="107" cy="-104" rx="83.3674" ry="18"/>
<text text-anchor="middle" x="107" y="-99.8" font-family="Times,serif" font-size="14.00" fill="#000000">AuthGuardService</text>
</g>
<!-- AuthGuardService&#45;&gt;AppModule -->
<g id="edge5" class="edge">
<title>AuthGuardService&#45;&gt;AppModule</title>
<path fill="none" stroke="#000000" d="M107,-122.1061C107,-141.3391 107,-169 107,-169 107,-169 286.1676,-169 286.1676,-169"/>
<polygon fill="#000000" stroke="#000000" points="286.1677,-172.5001 296.1676,-169 286.1676,-165.5001 286.1677,-172.5001"/>
</g>
</g>
</svg>
