<?xml version="1.0" encoding="UTF-8" standalone="no"?>
<!DOCTYPE svg PUBLIC "-//W3C//DTD SVG 1.1//EN"
 "http://www.w3.org/Graphics/SVG/1.1/DTD/svg11.dtd">
<!-- Generated by graphviz version 2.40.1 (20161225.0304)
 -->
<!-- Title: dependencies Pages: 1 -->
<svg width="2968pt" height="360pt"
 viewBox="0.00 0.00 2968.00 360.00" xmlns="http://www.w3.org/2000/svg" xmlns:xlink="http://www.w3.org/1999/xlink">
<g id="graph0" class="graph" transform="scale(1 1) rotate(0) translate(4 356)">
<title>dependencies</title>
<polygon fill="#ffffff" stroke="transparent" points="-4,4 -4,-356 2964,-356 2964,4 -4,4"/>
<text text-anchor="start" x="1459.0091" y="-42.4" font-family="sans-serif" font-weight="bold" font-size="14.00" fill="#000000">Legend</text>
<polygon fill="#ffffb3" stroke="transparent" points="1246,-10 1246,-30 1266,-30 1266,-10 1246,-10"/>
<text text-anchor="start" x="1269.629" y="-15.4" font-family="sans-serif" font-size="14.00" fill="#000000"> &#160;Declarations</text>
<polygon fill="#8dd3c7" stroke="transparent" points="1359,-10 1359,-30 1379,-30 1379,-10 1359,-10"/>
<text text-anchor="start" x="1382.7251" y="-15.4" font-family="sans-serif" font-size="14.00" fill="#000000"> &#160;Module</text>
<polygon fill="#80b1d3" stroke="transparent" points="1445,-10 1445,-30 1465,-30 1465,-10 1445,-10"/>
<text text-anchor="start" x="1468.7812" y="-15.4" font-family="sans-serif" font-size="14.00" fill="#000000"> &#160;Bootstrap</text>
<polygon fill="#fdb462" stroke="transparent" points="1542,-10 1542,-30 1562,-30 1562,-10 1542,-10"/>
<text text-anchor="start" x="1565.6732" y="-15.4" font-family="sans-serif" font-size="14.00" fill="#000000"> &#160;Providers</text>
<polygon fill="#fb8072" stroke="transparent" points="1638,-10 1638,-30 1658,-30 1658,-10 1638,-10"/>
<text text-anchor="start" x="1661.7258" y="-15.4" font-family="sans-serif" font-size="14.00" fill="#000000"> &#160;Exports</text>
<g id="clust1" class="cluster">
<title>cluster_AppModule</title>
<polygon fill="none" stroke="#000000" stroke-dasharray="1,5" points="1159,-146 1159,-344 1884,-344 1884,-146 1159,-146"/>
</g>
<g id="clust2" class="cluster">
<title>cluster_AppModule_declarations</title>
<polygon fill="none" stroke="#000000" points="1754,-154 1754,-206 1876,-206 1876,-154 1754,-154"/>
</g>
<g id="clust4" class="cluster">
<title>cluster_AppModule_imports</title>
<polygon fill="none" stroke="#000000" points="1357,-154 1357,-206 1746,-206 1746,-154 1357,-154"/>
</g>
<g id="clust6" class="cluster">
<title>cluster_AppModule_bootstrap</title>
<polygon fill="none" stroke="#000000" points="1493,-284 1493,-336 1617,-336 1617,-284 1493,-284"/>
</g>
<g id="clust7" class="cluster">
<title>cluster_AppModule_providers</title>
<polygon fill="none" stroke="#000000" points="1167,-154 1167,-206 1349,-206 1349,-154 1167,-154"/>
</g>
<g id="clust8" class="cluster">
<title>cluster_HomePageModule</title>
<polygon fill="none" stroke="#000000" stroke-dasharray="1,5" points="8,-70 8,-138 892,-138 892,-70 8,-70"/>
</g>
<g id="clust9" class="cluster">
<title>cluster_HomePageModule_declarations</title>
<polygon fill="none" stroke="#000000" points="200,-78 200,-130 884,-130 884,-78 200,-78"/>
</g>
<g id="clust15" class="cluster">
<title>cluster_HomePageModule_exports</title>
<polygon fill="none" stroke="#000000" points="16,-78 16,-130 192,-130 192,-78 16,-78"/>
</g>
<g id="clust18" class="cluster">
<title>cluster_SidebarModule</title>
<polygon fill="none" stroke="#000000" stroke-dasharray="1,5" points="900,-70 900,-138 1645,-138 1645,-70 900,-70"/>
</g>
<g id="clust19" class="cluster">
<title>cluster_SidebarModule_declarations</title>
<polygon fill="none" stroke="#000000" points="1100,-78 1100,-130 1637,-130 1637,-78 1100,-78"/>
</g>
<g id="clust24" class="cluster">
<title>cluster_SidebarModule_exports</title>
<polygon fill="none" stroke="#000000" points="908,-78 908,-130 1092,-130 1092,-78 908,-78"/>
</g>
<g id="clust27" class="cluster">
<title>cluster_ToolPageModule</title>
<polygon fill="none" stroke="#000000" stroke-dasharray="1,5" points="1653,-70 1653,-138 2952,-138 2952,-70 1653,-70"/>
</g>
<g id="clust28" class="cluster">
<title>cluster_ToolPageModule_declarations</title>
<polygon fill="none" stroke="#000000" points="1661,-78 1661,-130 2944,-130 2944,-78 1661,-78"/>
</g>
<!-- AppComponent -->
<g id="node1" class="node">
<title>AppComponent</title>
<polygon fill="#ffffb3" stroke="#000000" points="1867.9399,-198 1762.0601,-198 1762.0601,-162 1867.9399,-162 1867.9399,-198"/>
<text text-anchor="middle" x="1815" y="-175.8" font-family="Times,serif" font-size="14.00" fill="#000000">AppComponent</text>
</g>
<!-- AppModule -->
<g id="node2" class="node">
<title>AppModule</title>
<polygon fill="#8dd3c7" stroke="#000000" points="1596.6571,-263 1593.6571,-267 1572.6571,-267 1569.6571,-263 1513.3429,-263 1513.3429,-227 1596.6571,-227 1596.6571,-263"/>
<text text-anchor="middle" x="1555" y="-240.8" font-family="Times,serif" font-size="14.00" fill="#000000">AppModule</text>
</g>
<!-- AppComponent&#45;&gt;AppModule -->
<g id="edge1" class="edge">
<title>AppComponent&#45;&gt;AppModule</title>
<path fill="none" stroke="#000000" d="M1815,-198.2843C1815,-219.3211 1815,-251 1815,-251 1815,-251 1606.7735,-251 1606.7735,-251"/>
<polygon fill="#000000" stroke="#000000" points="1606.7735,-247.5001 1596.7735,-251 1606.7735,-254.5001 1606.7735,-247.5001"/>
</g>
<!-- AppComponent  -->
<g id="node6" class="node">
<title>AppComponent </title>
<polygon fill="#80b1d3" stroke="#000000" points="1609.439,-328 1500.561,-328 1500.561,-292 1609.439,-292 1609.439,-328"/>
<text text-anchor="middle" x="1555" y="-305.8" font-family="Times,serif" font-size="14.00" fill="#000000">AppComponent </text>
</g>
<!-- AppModule&#45;&gt;AppComponent  -->
<g id="edge5" class="edge">
<title>AppModule&#45;&gt;AppComponent </title>
<path fill="none" stroke="#000000" stroke-dasharray="1,5" d="M1555,-263.1061C1555,-263.1061 1555,-281.991 1555,-281.991"/>
<polygon fill="#000000" stroke="#000000" points="1551.5001,-281.9909 1555,-291.991 1558.5001,-281.991 1551.5001,-281.9909"/>
</g>
<!-- HomePageModule -->
<g id="node3" class="node">
<title>HomePageModule</title>
<polygon fill="#8dd3c7" stroke="#000000" points="1485.4734,-198 1482.4734,-202 1461.4734,-202 1458.4734,-198 1364.5266,-198 1364.5266,-162 1485.4734,-162 1485.4734,-198"/>
<text text-anchor="middle" x="1425" y="-175.8" font-family="Times,serif" font-size="14.00" fill="#000000">HomePageModule</text>
</g>
<!-- HomePageModule&#45;&gt;AppModule -->
<g id="edge2" class="edge">
<title>HomePageModule&#45;&gt;AppModule</title>
<path fill="none" stroke="#000000" d="M1425,-198.0225C1425,-215.3734 1425,-239 1425,-239 1425,-239 1503.1516,-239 1503.1516,-239"/>
<polygon fill="#000000" stroke="#000000" points="1503.1516,-242.5001 1513.1516,-239 1503.1516,-235.5001 1503.1516,-242.5001"/>
</g>
<!-- BreadcrumbsComponent  -->
<g id="node12" class="node">
<title>BreadcrumbsComponent </title>
<polygon fill="#fb8072" stroke="#000000" points="183.9699,-122 24.0301,-122 24.0301,-86 183.9699,-86 183.9699,-122"/>
<text text-anchor="middle" x="104" y="-99.8" font-family="Times,serif" font-size="14.00" fill="#000000">BreadcrumbsComponent </text>
</g>
<!-- HomePageModule&#45;&gt;BreadcrumbsComponent  -->
<g id="edge11" class="edge">
<title>HomePageModule&#45;&gt;BreadcrumbsComponent </title>
<path fill="none" stroke="#000000" stroke-dasharray="5,2" d="M1378.5176,-161.8457C1378.5176,-160.7031 1378.5176,-160 1378.5176,-160 1378.5176,-160 104,-160 104,-160 104,-160 104,-132.027 104,-132.027"/>
<polygon fill="#000000" stroke="#000000" points="107.5001,-132.027 104,-122.027 100.5001,-132.027 107.5001,-132.027"/>
</g>
<!-- SidebarModule -->
<g id="node4" class="node">
<title>SidebarModule</title>
<polygon fill="#8dd3c7" stroke="#000000" points="1606.3133,-198 1603.3133,-202 1582.3133,-202 1579.3133,-198 1503.6867,-198 1503.6867,-162 1606.3133,-162 1606.3133,-198"/>
<text text-anchor="middle" x="1555" y="-175.8" font-family="Times,serif" font-size="14.00" fill="#000000">SidebarModule</text>
</g>
<!-- SidebarModule&#45;&gt;AppModule -->
<g id="edge3" class="edge">
<title>SidebarModule&#45;&gt;AppModule</title>
<path fill="none" stroke="#000000" d="M1555,-198.1061C1555,-198.1061 1555,-216.991 1555,-216.991"/>
<polygon fill="#000000" stroke="#000000" points="1551.5001,-216.9909 1555,-226.991 1558.5001,-216.991 1551.5001,-216.9909"/>
</g>
<!-- CourseSidebarComponent  -->
<g id="node16" class="node">
<title>CourseSidebarComponent </title>
<polygon fill="#fb8072" stroke="#000000" points="1083.752,-122 916.248,-122 916.248,-86 1083.752,-86 1083.752,-122"/>
<text text-anchor="middle" x="1000" y="-99.8" font-family="Times,serif" font-size="14.00" fill="#000000">CourseSidebarComponent </text>
</g>
<!-- SidebarModule&#45;&gt;CourseSidebarComponent  -->
<g id="edge15" class="edge">
<title>SidebarModule&#45;&gt;CourseSidebarComponent </title>
<path fill="none" stroke="#000000" stroke-dasharray="5,2" d="M1524.3062,-161.9551C1524.3062,-154.251 1524.3062,-147 1524.3062,-147 1524.3062,-147 1000,-147 1000,-147 1000,-147 1000,-132.4854 1000,-132.4854"/>
<polygon fill="#000000" stroke="#000000" points="1003.5001,-132.4854 1000,-122.4854 996.5001,-132.4855 1003.5001,-132.4854"/>
</g>
<!-- ToolPageModule -->
<g id="node5" class="node">
<title>ToolPageModule</title>
<polygon fill="#8dd3c7" stroke="#000000" points="1737.705,-198 1734.705,-202 1713.705,-202 1710.705,-198 1624.295,-198 1624.295,-162 1737.705,-162 1737.705,-198"/>
<text text-anchor="middle" x="1681" y="-175.8" font-family="Times,serif" font-size="14.00" fill="#000000">ToolPageModule</text>
</g>
<!-- ToolPageModule&#45;&gt;AppModule -->
<g id="edge4" class="edge">
<title>ToolPageModule&#45;&gt;AppModule</title>
<path fill="none" stroke="#000000" d="M1681,-198.0225C1681,-215.3734 1681,-239 1681,-239 1681,-239 1606.9562,-239 1606.9562,-239"/>
<polygon fill="#000000" stroke="#000000" points="1606.9562,-235.5001 1596.9562,-239 1606.9561,-242.5001 1606.9562,-235.5001"/>
</g>
<!-- AuthGuardService -->
<g id="node7" class="node">
<title>AuthGuardService</title>
<ellipse fill="#fdb462" stroke="#000000" cx="1258" cy="-180" rx="83.3674" ry="18"/>
<text text-anchor="middle" x="1258" y="-175.8" font-family="Times,serif" font-size="14.00" fill="#000000">AuthGuardService</text>
</g>
<!-- AuthGuardService&#45;&gt;AppModule -->
<g id="edge6" class="edge">
<title>AuthGuardService&#45;&gt;AppModule</title>
<path fill="none" stroke="#000000" d="M1258,-198.2843C1258,-219.3211 1258,-251 1258,-251 1258,-251 1503.0771,-251 1503.0771,-251"/>
<polygon fill="#000000" stroke="#000000" points="1503.0771,-254.5001 1513.0771,-251 1503.077,-247.5001 1503.0771,-254.5001"/>
</g>
<!-- BreadcrumbsComponent -->
<g id="node8" class="node">
<title>BreadcrumbsComponent</title>
<polygon fill="#ffffb3" stroke="#000000" points="875.9692,-122 720.0308,-122 720.0308,-86 875.9692,-86 875.9692,-122"/>
<text text-anchor="middle" x="798" y="-99.8" font-family="Times,serif" font-size="14.00" fill="#000000">BreadcrumbsComponent</text>
</g>
<!-- BreadcrumbsComponent&#45;&gt;HomePageModule -->
<g id="edge7" class="edge">
<title>BreadcrumbsComponent&#45;&gt;HomePageModule</title>
<path fill="none" stroke="#000000" d="M798,-122.1804C798,-135.0382 798,-150 798,-150 798,-150 1434.5349,-150 1434.5349,-150 1434.5349,-150 1434.5349,-151.8568 1434.5349,-151.8568"/>
<polygon fill="#000000" stroke="#000000" points="1431.035,-151.8568 1434.5349,-161.8568 1438.035,-151.8568 1431.035,-151.8568"/>
</g>
<!-- CategoriesComponent -->
<g id="node9" class="node">
<title>CategoriesComponent</title>
<polygon fill="#ffffb3" stroke="#000000" points="701.6993,-122 560.3007,-122 560.3007,-86 701.6993,-86 701.6993,-122"/>
<text text-anchor="middle" x="631" y="-99.8" font-family="Times,serif" font-size="14.00" fill="#000000">CategoriesComponent</text>
</g>
<!-- CategoriesComponent&#45;&gt;HomePageModule -->
<g id="edge8" class="edge">
<title>CategoriesComponent&#45;&gt;HomePageModule</title>
<path fill="none" stroke="#000000" d="M631,-122.1467C631,-135.7395 631,-152 631,-152 631,-152 1420.5306,-152 1420.5306,-152 1420.5306,-152 1420.5306,-152.9793 1420.5306,-152.9793"/>
<polygon fill="#000000" stroke="#000000" points="1417.0307,-151.793 1420.5306,-161.793 1424.0307,-151.7931 1417.0307,-151.793"/>
</g>
<!-- OptionsViewComponent -->
<g id="node10" class="node">
<title>OptionsViewComponent</title>
<polygon fill="#ffffb3" stroke="#000000" points="541.9832,-122 386.0168,-122 386.0168,-86 541.9832,-86 541.9832,-122"/>
<text text-anchor="middle" x="464" y="-99.8" font-family="Times,serif" font-size="14.00" fill="#000000">OptionsViewComponent</text>
</g>
<!-- OptionsViewComponent&#45;&gt;HomePageModule -->
<g id="edge9" class="edge">
<title>OptionsViewComponent&#45;&gt;HomePageModule</title>
<path fill="none" stroke="#000000" d="M464,-122.1243C464,-136.7832 464,-155 464,-155 464,-155 1406.5262,-155 1406.5262,-155 1406.5262,-155 1406.5262,-155.6831 1406.5262,-155.6831"/>
<polygon fill="#000000" stroke="#000000" points="1403.0264,-151.8313 1406.5262,-161.8314 1410.0264,-151.8314 1403.0264,-151.8313"/>
</g>
<!-- ToolSelectionComponent -->
<g id="node11" class="node">
<title>ToolSelectionComponent</title>
<polygon fill="#ffffb3" stroke="#000000" points="367.8738,-122 208.1262,-122 208.1262,-86 367.8738,-86 367.8738,-122"/>
<text text-anchor="middle" x="288" y="-99.8" font-family="Times,serif" font-size="14.00" fill="#000000">ToolSelectionComponent</text>
</g>
<!-- ToolSelectionComponent&#45;&gt;HomePageModule -->
<g id="edge10" class="edge">
<title>ToolSelectionComponent&#45;&gt;HomePageModule</title>
<path fill="none" stroke="#000000" d="M288,-122.2396C288,-137.5706 288,-157 288,-157 288,-157 1392.5219,-157 1392.5219,-157 1392.5219,-157 1392.5219,-157.4878 1392.5219,-157.4878"/>
<polygon fill="#000000" stroke="#000000" points="1389.0222,-151.8776 1392.5219,-161.8777 1396.0222,-151.8778 1389.0222,-151.8776"/>
</g>
<!-- CourseChipComponent -->
<g id="node13" class="node">
<title>CourseChipComponent</title>
<polygon fill="#ffffb3" stroke="#000000" points="1629.2162,-122 1480.7838,-122 1480.7838,-86 1629.2162,-86 1629.2162,-122"/>
<text text-anchor="middle" x="1555" y="-99.8" font-family="Times,serif" font-size="14.00" fill="#000000">CourseChipComponent</text>
</g>
<!-- CourseChipComponent&#45;&gt;SidebarModule -->
<g id="edge12" class="edge">
<title>CourseChipComponent&#45;&gt;SidebarModule</title>
<path fill="none" stroke="#000000" d="M1585.6938,-122.0109C1585.6938,-122.0109 1585.6938,-151.855 1585.6938,-151.855"/>
<polygon fill="#000000" stroke="#000000" points="1582.1939,-151.8549 1585.6938,-161.855 1589.1939,-151.855 1582.1939,-151.8549"/>
</g>
<!-- CourseSelectionComponent -->
<g id="node14" class="node">
<title>CourseSelectionComponent</title>
<polygon fill="#ffffb3" stroke="#000000" points="1462.587,-122 1289.413,-122 1289.413,-86 1462.587,-86 1462.587,-122"/>
<text text-anchor="middle" x="1376" y="-99.8" font-family="Times,serif" font-size="14.00" fill="#000000">CourseSelectionComponent</text>
</g>
<!-- CourseSelectionComponent&#45;&gt;SidebarModule -->
<g id="edge13" class="edge">
<title>CourseSelectionComponent&#45;&gt;SidebarModule</title>
<path fill="none" stroke="#000000" d="M1448.5392,-122.1097C1448.5392,-131.897 1448.5392,-142 1448.5392,-142 1448.5392,-142 1565.2313,-142 1565.2313,-142 1565.2313,-142 1565.2313,-151.8903 1565.2313,-151.8903"/>
<polygon fill="#000000" stroke="#000000" points="1561.7314,-151.8903 1565.2313,-161.8903 1568.7314,-151.8904 1561.7314,-151.8903"/>
</g>
<!-- CourseSidebarComponent -->
<g id="node15" class="node">
<title>CourseSidebarComponent</title>
<polygon fill="#ffffb3" stroke="#000000" points="1271.752,-122 1108.248,-122 1108.248,-86 1271.752,-86 1271.752,-122"/>
<text text-anchor="middle" x="1190" y="-99.8" font-family="Times,serif" font-size="14.00" fill="#000000">CourseSidebarComponent</text>
</g>
<!-- CourseSidebarComponent&#45;&gt;SidebarModule -->
<g id="edge14" class="edge">
<title>CourseSidebarComponent&#45;&gt;SidebarModule</title>
<path fill="none" stroke="#000000" d="M1223.2211,-122.1025C1223.2211,-133.0859 1223.2211,-145 1223.2211,-145 1223.2211,-145 1544.7687,-145 1544.7687,-145 1544.7687,-145 1544.7687,-151.68 1544.7687,-151.68"/>
<polygon fill="#000000" stroke="#000000" points="1541.2688,-151.6799 1544.7687,-161.68 1548.2688,-151.68 1541.2688,-151.6799"/>
</g>
<!-- CodeEditorComponent -->
<g id="node17" class="node">
<title>CodeEditorComponent</title>
<polygon fill="#ffffb3" stroke="#000000" points="2935.8781,-122 2790.1219,-122 2790.1219,-86 2935.8781,-86 2935.8781,-122"/>
<text text-anchor="middle" x="2863" y="-99.8" font-family="Times,serif" font-size="14.00" fill="#000000">CodeEditorComponent</text>
</g>
<!-- CodeEditorComponent&#45;&gt;ToolPageModule -->
<g id="edge16" class="edge">
<title>CodeEditorComponent&#45;&gt;ToolPageModule</title>
<path fill="none" stroke="#000000" d="M2863,-122.4218C2863,-131.2791 2863,-140 2863,-140 2863,-140 1729.9747,-140 1729.9747,-140 1729.9747,-140 1729.9747,-151.8726 1729.9747,-151.8726"/>
<polygon fill="#000000" stroke="#000000" points="1726.4748,-151.8725 1729.9747,-161.8726 1733.4748,-151.8726 1726.4748,-151.8725"/>
</g>
<!-- IssueCardComponent -->
<g id="node18" class="node">
<title>IssueCardComponent</title>
<polygon fill="#ffffb3" stroke="#000000" points="2771.8089,-122 2634.1911,-122 2634.1911,-86 2771.8089,-86 2771.8089,-122"/>
<text text-anchor="middle" x="2703" y="-99.8" font-family="Times,serif" font-size="14.00" fill="#000000">IssueCardComponent</text>
</g>
<!-- IssueCardComponent&#45;&gt;ToolPageModule -->
<g id="edge17" class="edge">
<title>IssueCardComponent&#45;&gt;ToolPageModule</title>
<path fill="none" stroke="#000000" d="M2703,-122.0449C2703,-129.749 2703,-137 2703,-137 2703,-137 1722.347,-137 1722.347,-137 1722.347,-137 1722.347,-151.5146 1722.347,-151.5146"/>
<polygon fill="#000000" stroke="#000000" points="1718.8471,-151.5145 1722.347,-161.5146 1725.8471,-151.5146 1718.8471,-151.5145"/>
</g>
<!-- IssueContainerComponent -->
<g id="node19" class="node">
<title>IssueContainerComponent</title>
<polygon fill="#ffffb3" stroke="#000000" points="2616.8047,-122 2451.1953,-122 2451.1953,-86 2616.8047,-86 2616.8047,-122"/>
<text text-anchor="middle" x="2534" y="-99.8" font-family="Times,serif" font-size="14.00" fill="#000000">IssueContainerComponent</text>
</g>
<!-- IssueContainerComponent&#45;&gt;ToolPageModule -->
<g id="edge18" class="edge">
<title>IssueContainerComponent&#45;&gt;ToolPageModule</title>
<path fill="none" stroke="#000000" d="M2534,-122.0328C2534,-128.8526 2534,-135 2534,-135 2534,-135 1714.7193,-135 1714.7193,-135 1714.7193,-135 1714.7193,-151.9561 1714.7193,-151.9561"/>
<polygon fill="#000000" stroke="#000000" points="1711.2194,-151.956 1714.7193,-161.9561 1718.2194,-151.9561 1711.2194,-151.956"/>
</g>
<!-- IssueDetailsComponent -->
<g id="node20" class="node">
<title>IssueDetailsComponent</title>
<polygon fill="#ffffb3" stroke="#000000" points="2432.7492,-122 2283.2508,-122 2283.2508,-86 2432.7492,-86 2432.7492,-122"/>
<text text-anchor="middle" x="2358" y="-99.8" font-family="Times,serif" font-size="14.00" fill="#000000">IssueDetailsComponent</text>
</g>
<!-- IssueDetailsComponent&#45;&gt;ToolPageModule -->
<g id="edge19" class="edge">
<title>IssueDetailsComponent&#45;&gt;ToolPageModule</title>
<path fill="none" stroke="#000000" d="M2358,-122.207C2358,-127.5549 2358,-132 2358,-132 2358,-132 1707.0916,-132 1707.0916,-132 1707.0916,-132 1707.0916,-151.8533 1707.0916,-151.8533"/>
<polygon fill="#000000" stroke="#000000" points="1703.5917,-151.8532 1707.0916,-161.8533 1710.5917,-151.8533 1703.5917,-151.8532"/>
</g>
<!-- IssueListComponent -->
<g id="node21" class="node">
<title>IssueListComponent</title>
<polygon fill="#ffffb3" stroke="#000000" points="2264.8753,-122 2133.1247,-122 2133.1247,-86 2264.8753,-86 2264.8753,-122"/>
<text text-anchor="middle" x="2199" y="-99.8" font-family="Times,serif" font-size="14.00" fill="#000000">IssueListComponent</text>
</g>
<!-- IssueListComponent&#45;&gt;ToolPageModule -->
<g id="edge20" class="edge">
<title>IssueListComponent&#45;&gt;ToolPageModule</title>
<path fill="none" stroke="#000000" d="M2199,-122.0579C2199,-126.4945 2199,-130 2199,-130 2199,-130 1699.4638,-130 1699.4638,-130 1699.4638,-130 1699.4638,-151.9489 1699.4638,-151.9489"/>
<polygon fill="#000000" stroke="#000000" points="1695.9639,-151.9488 1699.4638,-161.9489 1702.9639,-151.9489 1695.9639,-151.9488"/>
</g>
<!-- IssueNavComponent -->
<g id="node22" class="node">
<title>IssueNavComponent</title>
<polygon fill="#ffffb3" stroke="#000000" points="2114.9187,-122 1981.0813,-122 1981.0813,-86 2114.9187,-86 2114.9187,-122"/>
<text text-anchor="middle" x="2048" y="-99.8" font-family="Times,serif" font-size="14.00" fill="#000000">IssueNavComponent</text>
</g>
<!-- IssueNavComponent&#45;&gt;ToolPageModule -->
<g id="edge21" class="edge">
<title>IssueNavComponent&#45;&gt;ToolPageModule</title>
<path fill="none" stroke="#000000" d="M2048,-122.1223C2048,-124.9729 2048,-127 2048,-127 2048,-127 1691.8361,-127 1691.8361,-127 1691.8361,-127 1691.8361,-151.7604 1691.8361,-151.7604"/>
<polygon fill="#000000" stroke="#000000" points="1688.3362,-151.7604 1691.8361,-161.7604 1695.3362,-151.7604 1688.3362,-151.7604"/>
</g>
<!-- StatBadgeComponent -->
<g id="node23" class="node">
<title>StatBadgeComponent</title>
<polygon fill="#ffffb3" stroke="#000000" points="1963.3767,-122 1824.6233,-122 1824.6233,-86 1963.3767,-86 1963.3767,-122"/>
<text text-anchor="middle" x="1894" y="-99.8" font-family="Times,serif" font-size="14.00" fill="#000000">StatBadgeComponent</text>
</g>
<!-- StatBadgeComponent&#45;&gt;ToolPageModule -->
<g id="edge22" class="edge">
<title>StatBadgeComponent&#45;&gt;ToolPageModule</title>
<path fill="none" stroke="#000000" d="M1846.1406,-122.08C1846.1406,-123.8464 1846.1406,-125 1846.1406,-125 1846.1406,-125 1684.2084,-125 1684.2084,-125 1684.2084,-125 1684.2084,-151.9909 1684.2084,-151.9909"/>
<polygon fill="#000000" stroke="#000000" points="1680.7085,-151.9909 1684.2084,-161.9909 1687.7085,-151.991 1680.7085,-151.9909"/>
</g>
<!-- ToolViewComponent -->
<g id="node24" class="node">
<title>ToolViewComponent</title>
<polygon fill="#ffffb3" stroke="#000000" points="1807.094,-122 1668.906,-122 1668.906,-86 1807.094,-86 1807.094,-122"/>
<text text-anchor="middle" x="1738" y="-99.8" font-family="Times,serif" font-size="14.00" fill="#000000">ToolViewComponent</text>
</g>
<!-- ToolViewComponent&#45;&gt;ToolPageModule -->
<g id="edge23" class="edge">
<title>ToolViewComponent&#45;&gt;ToolPageModule</title>
<path fill="none" stroke="#000000" d="M1676.5807,-122.0109C1676.5807,-122.0109 1676.5807,-151.855 1676.5807,-151.855"/>
<polygon fill="#000000" stroke="#000000" points="1673.0808,-151.8549 1676.5807,-161.855 1680.0808,-151.855 1673.0808,-151.8549"/>
</g>
</g>
</svg>
