<?xml version="1.0" encoding="UTF-8" standalone="no"?>
<!DOCTYPE svg PUBLIC "-//W3C//DTD SVG 1.1//EN"
 "http://www.w3.org/Graphics/SVG/1.1/DTD/svg11.dtd">
<!-- Generated by graphviz version 2.40.1 (20161225.0304)
 -->
<!-- Title: dependencies Pages: 1 -->
<svg width="2627pt" height="284pt"
 viewBox="0.00 0.00 2627.00 284.00" xmlns="http://www.w3.org/2000/svg" xmlns:xlink="http://www.w3.org/1999/xlink">
<g id="graph0" class="graph" transform="scale(1 1) rotate(0) translate(4 280)">
<title>dependencies</title>
<polygon fill="#ffffff" stroke="transparent" points="-4,4 -4,-280 2623,-280 2623,4 -4,4"/>
<text text-anchor="start" x="1288.5091" y="-42.4" font-family="sans-serif" font-weight="bold" font-size="14.00" fill="#000000">Legend</text>
<polygon fill="#ffffb3" stroke="transparent" points="1075.5,-10 1075.5,-30 1095.5,-30 1095.5,-10 1075.5,-10"/>
<text text-anchor="start" x="1099.129" y="-15.4" font-family="sans-serif" font-size="14.00" fill="#000000"> &#160;Declarations</text>
<polygon fill="#8dd3c7" stroke="transparent" points="1188.5,-10 1188.5,-30 1208.5,-30 1208.5,-10 1188.5,-10"/>
<text text-anchor="start" x="1212.2251" y="-15.4" font-family="sans-serif" font-size="14.00" fill="#000000"> &#160;Module</text>
<polygon fill="#80b1d3" stroke="transparent" points="1274.5,-10 1274.5,-30 1294.5,-30 1294.5,-10 1274.5,-10"/>
<text text-anchor="start" x="1298.2812" y="-15.4" font-family="sans-serif" font-size="14.00" fill="#000000"> &#160;Bootstrap</text>
<polygon fill="#fdb462" stroke="transparent" points="1371.5,-10 1371.5,-30 1391.5,-30 1391.5,-10 1371.5,-10"/>
<text text-anchor="start" x="1395.1732" y="-15.4" font-family="sans-serif" font-size="14.00" fill="#000000"> &#160;Providers</text>
<polygon fill="#fb8072" stroke="transparent" points="1467.5,-10 1467.5,-30 1487.5,-30 1487.5,-10 1467.5,-10"/>
<text text-anchor="start" x="1491.2258" y="-15.4" font-family="sans-serif" font-size="14.00" fill="#000000"> &#160;Exports</text>
<g id="clust1" class="cluster">
<title>cluster_AppModule</title>
<polygon fill="none" stroke="#000000" stroke-dasharray="1,5" points="8,-70 8,-268 2611,-268 2611,-70 8,-70"/>
</g>
<g id="clust2" class="cluster">
<title>cluster_AppModule_declarations</title>
<polygon fill="none" stroke="#000000" points="16,-78 16,-130 2603,-130 2603,-78 16,-78"/>
</g>
<g id="clust21" class="cluster">
<title>cluster_AppModule_bootstrap</title>
<polygon fill="none" stroke="#000000" points="1263,-208 1263,-260 1387,-260 1387,-208 1263,-208"/>
</g>
<!-- AppComponent -->
<g id="node1" class="node">
<title>AppComponent</title>
<polygon fill="#ffffb3" stroke="#000000" points="2594.9399,-122 2489.0601,-122 2489.0601,-86 2594.9399,-86 2594.9399,-122"/>
<text text-anchor="middle" x="2542" y="-99.8" font-family="Times,serif" font-size="14.00" fill="#000000">AppComponent</text>
</g>
<!-- AppModule -->
<g id="node17" class="node">
<title>AppModule</title>
<polygon fill="#8dd3c7" stroke="#000000" points="1366.6571,-187 1363.6571,-191 1342.6571,-191 1339.6571,-187 1283.3429,-187 1283.3429,-151 1366.6571,-151 1366.6571,-187"/>
<text text-anchor="middle" x="1325" y="-164.8" font-family="Times,serif" font-size="14.00" fill="#000000">AppModule</text>
</g>
<!-- AppComponent&#45;&gt;AppModule -->
<g id="edge1" class="edge">
<title>AppComponent&#45;&gt;AppModule</title>
<path fill="none" stroke="#000000" d="M2542,-122.3228C2542,-145.6602 2542,-183 2542,-183 2542,-183 1376.8919,-183 1376.8919,-183"/>
<polygon fill="#000000" stroke="#000000" points="1376.8919,-179.5001 1366.8919,-183 1376.8919,-186.5001 1376.8919,-179.5001"/>
</g>
<!-- BreadcrumbsComponent -->
<g id="node2" class="node">
<title>BreadcrumbsComponent</title>
<polygon fill="#ffffb3" stroke="#000000" points="2470.9692,-122 2315.0308,-122 2315.0308,-86 2470.9692,-86 2470.9692,-122"/>
<text text-anchor="middle" x="2393" y="-99.8" font-family="Times,serif" font-size="14.00" fill="#000000">BreadcrumbsComponent</text>
</g>
<!-- BreadcrumbsComponent&#45;&gt;AppModule -->
<g id="edge2" class="edge">
<title>BreadcrumbsComponent&#45;&gt;AppModule</title>
<path fill="none" stroke="#000000" d="M2393,-122.2921C2393,-144.2057 2393,-178 2393,-178 2393,-178 1376.8669,-178 1376.8669,-178"/>
<polygon fill="#000000" stroke="#000000" points="1376.8669,-174.5001 1366.8669,-178 1376.8668,-181.5001 1376.8669,-174.5001"/>
</g>
<!-- BypassSanitize -->
<g id="node3" class="node">
<title>BypassSanitize</title>
<polygon fill="#ffffb3" stroke="#000000" points="2296.5396,-122 2195.4604,-122 2195.4604,-86 2296.5396,-86 2296.5396,-122"/>
<text text-anchor="middle" x="2246" y="-99.8" font-family="Times,serif" font-size="14.00" fill="#000000">BypassSanitize</text>
</g>
<!-- BypassSanitize&#45;&gt;AppModule -->
<g id="edge3" class="edge">
<title>BypassSanitize&#45;&gt;AppModule</title>
<path fill="none" stroke="#000000" d="M2246,-122.0267C2246,-142.7672 2246,-174 2246,-174 2246,-174 1376.6642,-174 1376.6642,-174"/>
<polygon fill="#000000" stroke="#000000" points="1376.6642,-170.5001 1366.6642,-174 1376.6642,-177.5001 1376.6642,-170.5001"/>
</g>
<!-- CategoriesComponent -->
<g id="node4" class="node">
<title>CategoriesComponent</title>
<polygon fill="#ffffb3" stroke="#000000" points="2177.6993,-122 2036.3007,-122 2036.3007,-86 2177.6993,-86 2177.6993,-122"/>
<text text-anchor="middle" x="2107" y="-99.8" font-family="Times,serif" font-size="14.00" fill="#000000">CategoriesComponent</text>
</g>
<!-- CategoriesComponent&#45;&gt;AppModule -->
<g id="edge4" class="edge">
<title>CategoriesComponent&#45;&gt;AppModule</title>
<path fill="none" stroke="#000000" d="M2107,-122.1061C2107,-141.3391 2107,-169 2107,-169 2107,-169 1376.7673,-169 1376.7673,-169"/>
<polygon fill="#000000" stroke="#000000" points="1376.7673,-165.5001 1366.7673,-169 1376.7672,-172.5001 1376.7673,-165.5001"/>
</g>
<!-- CourseChipComponent -->
<g id="node5" class="node">
<title>CourseChipComponent</title>
<polygon fill="#ffffb3" stroke="#000000" points="2018.2162,-122 1869.7838,-122 1869.7838,-86 2018.2162,-86 2018.2162,-122"/>
<text text-anchor="middle" x="1944" y="-99.8" font-family="Times,serif" font-size="14.00" fill="#000000">CourseChipComponent</text>
</g>
<!-- CourseChipComponent&#45;&gt;AppModule -->
<g id="edge5" class="edge">
<title>CourseChipComponent&#45;&gt;AppModule</title>
<path fill="none" stroke="#000000" d="M1944,-122.302C1944,-140.2699 1944,-165 1944,-165 1944,-165 1377.0597,-165 1377.0597,-165"/>
<polygon fill="#000000" stroke="#000000" points="1377.0598,-161.5001 1367.0597,-165 1377.0597,-168.5001 1377.0598,-161.5001"/>
</g>
<!-- CourseSelectionComponent -->
<g id="node6" class="node">
<title>CourseSelectionComponent</title>
<polygon fill="#ffffb3" stroke="#000000" points="1851.587,-122 1678.413,-122 1678.413,-86 1851.587,-86 1851.587,-122"/>
<text text-anchor="middle" x="1765" y="-99.8" font-family="Times,serif" font-size="14.00" fill="#000000">CourseSelectionComponent</text>
</g>
<!-- CourseSelectionComponent&#45;&gt;AppModule -->
<g id="edge6" class="edge">
<title>CourseSelectionComponent&#45;&gt;AppModule</title>
<path fill="none" stroke="#000000" d="M1765,-122.027C1765,-138.3976 1765,-160 1765,-160 1765,-160 1376.7908,-160 1376.7908,-160"/>
<polygon fill="#000000" stroke="#000000" points="1376.7908,-156.5001 1366.7908,-160 1376.7908,-163.5001 1376.7908,-156.5001"/>
</g>
<!-- CourseSidebarComponent -->
<g id="node7" class="node">
<title>CourseSidebarComponent</title>
<polygon fill="#ffffb3" stroke="#000000" points="1660.752,-122 1497.248,-122 1497.248,-86 1660.752,-86 1660.752,-122"/>
<text text-anchor="middle" x="1579" y="-99.8" font-family="Times,serif" font-size="14.00" fill="#000000">CourseSidebarComponent</text>
</g>
<!-- CourseSidebarComponent&#45;&gt;AppModule -->
<g id="edge7" class="edge">
<title>CourseSidebarComponent&#45;&gt;AppModule</title>
<path fill="none" stroke="#000000" d="M1579,-122.1871C1579,-137.1824 1579,-156 1579,-156 1579,-156 1376.6585,-156 1376.6585,-156"/>
<polygon fill="#000000" stroke="#000000" points="1376.6585,-152.5001 1366.6585,-156 1376.6585,-159.5001 1376.6585,-152.5001"/>
</g>
<!-- IssueCardComponent -->
<g id="node8" class="node">
<title>IssueCardComponent</title>
<polygon fill="#ffffb3" stroke="#000000" points="1478.8089,-122 1341.1911,-122 1341.1911,-86 1478.8089,-86 1478.8089,-122"/>
<text text-anchor="middle" x="1410" y="-99.8" font-family="Times,serif" font-size="14.00" fill="#000000">IssueCardComponent</text>
</g>
<!-- IssueCardComponent&#45;&gt;AppModule -->
<g id="edge8" class="edge">
<title>IssueCardComponent&#45;&gt;AppModule</title>
<path fill="none" stroke="#000000" d="M1354.0869,-122.1061C1354.0869,-122.1061 1354.0869,-140.991 1354.0869,-140.991"/>
<polygon fill="#000000" stroke="#000000" points="1350.587,-140.9909 1354.0869,-150.991 1357.587,-140.991 1350.587,-140.9909"/>
</g>
<!-- IssueContainerComponent -->
<g id="node9" class="node">
<title>IssueContainerComponent</title>
<polygon fill="#ffffb3" stroke="#000000" points="1323.8047,-122 1158.1953,-122 1158.1953,-86 1323.8047,-86 1323.8047,-122"/>
<text text-anchor="middle" x="1241" y="-99.8" font-family="Times,serif" font-size="14.00" fill="#000000">IssueContainerComponent</text>
</g>
<!-- IssueContainerComponent&#45;&gt;AppModule -->
<g id="edge9" class="edge">
<title>IssueContainerComponent&#45;&gt;AppModule</title>
<path fill="none" stroke="#000000" d="M1303.412,-122.1061C1303.412,-122.1061 1303.412,-140.991 1303.412,-140.991"/>
<polygon fill="#000000" stroke="#000000" points="1299.9121,-140.9909 1303.412,-150.991 1306.9121,-140.991 1299.9121,-140.9909"/>
</g>
<!-- IssueDetailsComponent -->
<g id="node10" class="node">
<title>IssueDetailsComponent</title>
<polygon fill="#ffffb3" stroke="#000000" points="1139.7492,-122 990.2508,-122 990.2508,-86 1139.7492,-86 1139.7492,-122"/>
<text text-anchor="middle" x="1065" y="-99.8" font-family="Times,serif" font-size="14.00" fill="#000000">IssueDetailsComponent</text>
</g>
<!-- IssueDetailsComponent&#45;&gt;AppModule -->
<g id="edge10" class="edge">
<title>IssueDetailsComponent&#45;&gt;AppModule</title>
<path fill="none" stroke="#000000" d="M1065,-122.1871C1065,-137.1824 1065,-156 1065,-156 1065,-156 1273.2265,-156 1273.2265,-156"/>
<polygon fill="#000000" stroke="#000000" points="1273.2265,-159.5001 1283.2265,-156 1273.2265,-152.5001 1273.2265,-159.5001"/>
</g>
<!-- IssueListComponent -->
<g id="node11" class="node">
<title>IssueListComponent</title>
<polygon fill="#ffffb3" stroke="#000000" points="971.8753,-122 840.1247,-122 840.1247,-86 971.8753,-86 971.8753,-122"/>
<text text-anchor="middle" x="906" y="-99.8" font-family="Times,serif" font-size="14.00" fill="#000000">IssueListComponent</text>
</g>
<!-- IssueListComponent&#45;&gt;AppModule -->
<g id="edge11" class="edge">
<title>IssueListComponent&#45;&gt;AppModule</title>
<path fill="none" stroke="#000000" d="M906,-122.027C906,-138.3976 906,-160 906,-160 906,-160 1273.2928,-160 1273.2928,-160"/>
<polygon fill="#000000" stroke="#000000" points="1273.2929,-163.5001 1283.2928,-160 1273.2928,-156.5001 1273.2929,-163.5001"/>
</g>
<!-- IssueNavComponent -->
<g id="node12" class="node">
<title>IssueNavComponent</title>
<polygon fill="#ffffb3" stroke="#000000" points="821.9187,-122 688.0813,-122 688.0813,-86 821.9187,-86 821.9187,-122"/>
<text text-anchor="middle" x="755" y="-99.8" font-family="Times,serif" font-size="14.00" fill="#000000">IssueNavComponent</text>
</g>
<!-- IssueNavComponent&#45;&gt;AppModule -->
<g id="edge12" class="edge">
<title>IssueNavComponent&#45;&gt;AppModule</title>
<path fill="none" stroke="#000000" d="M755,-122.302C755,-140.2699 755,-165 755,-165 755,-165 1273.0865,-165 1273.0865,-165"/>
<polygon fill="#000000" stroke="#000000" points="1273.0866,-168.5001 1283.0865,-165 1273.0865,-161.5001 1273.0866,-168.5001"/>
</g>
<!-- OptionsViewComponent -->
<g id="node13" class="node">
<title>OptionsViewComponent</title>
<polygon fill="#ffffb3" stroke="#000000" points="669.9832,-122 514.0168,-122 514.0168,-86 669.9832,-86 669.9832,-122"/>
<text text-anchor="middle" x="592" y="-99.8" font-family="Times,serif" font-size="14.00" fill="#000000">OptionsViewComponent</text>
</g>
<!-- OptionsViewComponent&#45;&gt;AppModule -->
<g id="edge13" class="edge">
<title>OptionsViewComponent&#45;&gt;AppModule</title>
<path fill="none" stroke="#000000" d="M592,-122.1061C592,-141.3391 592,-169 592,-169 592,-169 1273.2247,-169 1273.2247,-169"/>
<polygon fill="#000000" stroke="#000000" points="1273.2247,-172.5001 1283.2247,-169 1273.2246,-165.5001 1273.2247,-172.5001"/>
</g>
<!-- StatBadgeComponent -->
<g id="node14" class="node">
<title>StatBadgeComponent</title>
<polygon fill="#ffffb3" stroke="#000000" points="496.3767,-122 357.6233,-122 357.6233,-86 496.3767,-86 496.3767,-122"/>
<text text-anchor="middle" x="427" y="-99.8" font-family="Times,serif" font-size="14.00" fill="#000000">StatBadgeComponent</text>
</g>
<!-- StatBadgeComponent&#45;&gt;AppModule -->
<g id="edge14" class="edge">
<title>StatBadgeComponent&#45;&gt;AppModule</title>
<path fill="none" stroke="#000000" d="M427,-122.0267C427,-142.7672 427,-174 427,-174 427,-174 1273.1908,-174 1273.1908,-174"/>
<polygon fill="#000000" stroke="#000000" points="1273.1908,-177.5001 1283.1908,-174 1273.1908,-170.5001 1273.1908,-177.5001"/>
</g>
<!-- ToolSelectionComponent -->
<g id="node15" class="node">
<title>ToolSelectionComponent</title>
<polygon fill="#ffffb3" stroke="#000000" points="339.8738,-122 180.1262,-122 180.1262,-86 339.8738,-86 339.8738,-122"/>
<text text-anchor="middle" x="260" y="-99.8" font-family="Times,serif" font-size="14.00" fill="#000000">ToolSelectionComponent</text>
</g>
<!-- ToolSelectionComponent&#45;&gt;AppModule -->
<g id="edge15" class="edge">
<title>ToolSelectionComponent&#45;&gt;AppModule</title>
<path fill="none" stroke="#000000" d="M260,-122.2921C260,-144.2057 260,-178 260,-178 260,-178 1273.2507,-178 1273.2507,-178"/>
<polygon fill="#000000" stroke="#000000" points="1273.2508,-181.5001 1283.2507,-178 1273.2507,-174.5001 1273.2508,-181.5001"/>
</g>
<!-- ToolViewComponent -->
<g id="node16" class="node">
<title>ToolViewComponent</title>
<polygon fill="#ffffb3" stroke="#000000" points="162.094,-122 23.906,-122 23.906,-86 162.094,-86 162.094,-122"/>
<text text-anchor="middle" x="93" y="-99.8" font-family="Times,serif" font-size="14.00" fill="#000000">ToolViewComponent</text>
</g>
<!-- ToolViewComponent&#45;&gt;AppModule -->
<g id="edge16" class="edge">
<title>ToolViewComponent&#45;&gt;AppModule</title>
<path fill="none" stroke="#000000" d="M93,-122.3228C93,-145.6602 93,-183 93,-183 93,-183 1273.3032,-183 1273.3032,-183"/>
<polygon fill="#000000" stroke="#000000" points="1273.3032,-186.5001 1283.3032,-183 1273.3032,-179.5001 1273.3032,-186.5001"/>
</g>
<!-- AppComponent  -->
<g id="node18" class="node">
<title>AppComponent </title>
<polygon fill="#80b1d3" stroke="#000000" points="1379.439,-252 1270.561,-252 1270.561,-216 1379.439,-216 1379.439,-252"/>
<text text-anchor="middle" x="1325" y="-229.8" font-family="Times,serif" font-size="14.00" fill="#000000">AppComponent </text>
</g>
<!-- AppModule&#45;&gt;AppComponent  -->
<g id="edge17" class="edge">
<title>AppModule&#45;&gt;AppComponent </title>
<path fill="none" stroke="#000000" stroke-dasharray="1,5" d="M1325,-187.1061C1325,-187.1061 1325,-205.991 1325,-205.991"/>
<polygon fill="#000000" stroke="#000000" points="1321.5001,-205.9909 1325,-215.991 1328.5001,-205.991 1321.5001,-205.9909"/>
</g>
</g>
</svg>
